<?xml version="1.0" encoding="UTF-8"?>
<svg xmlns="http://www.w3.org/2000/svg" xmlns:xlink="http://www.w3.org/1999/xlink" xmlns:svgjs="http://svgjs.com/svgjs" version="1.1" width="512" height="512" x="0" y="0" viewBox="0 0 300 300" style="enable-background:new 0 0 512 512" xml:space="preserve" class="">
  <g>
    <g xmlns="http://www.w3.org/2000/svg">
      <circle cx="134" cy="126" fill="#e1d2b9" r="92" data-original="#ffe4b8" class=""/>
      <g>
        <path d="m202 262 6.529-120.591c2.406-2.911 4.53-6.253 6.149-10.039 6.961-16.271 2.625-33.656-9.686-38.831-4.036-1.697-8.423-1.738-12.75-.631.03-.644.146-1.254.146-1.908 0-17.673-10.84-32-24.212-32-8.432 0-15.841 5.71-20.176 14.351-4.336-8.641-11.744-14.351-20.176-14.351-13.372 0-24.212 14.327-24.212 32 0 .654.116 1.264.146 1.908-4.327-1.107-8.714-1.065-12.75.631-12.311 5.176-16.648 22.561-9.687 38.831 1.62 3.785 3.744 7.128 6.149 10.039l6.53 120.591" fill="#bf7e68" data-original="#bf7e68" class=""/>
        <path d="m202.004 266c-.074 0-.145-.002-.219-.006-2.207-.119-3.898-2.004-3.781-4.211l6.527-120.59c.047-.854.367-1.672.914-2.332 2.309-2.793 4.18-5.844 5.559-9.064 3.52-8.232 3.953-17.275 1.16-24.189-1.824-4.504-4.84-7.748-8.723-9.381-3-1.26-6.43-1.408-10.207-.443-1.23.314-2.535.027-3.52-.775s-1.531-2.025-1.469-3.293c.02-.346.051-.686.086-1.023.023-.227.055-.455.055-.691 0-15.439-9.066-28-20.211-28-6.578 0-12.785 4.541-16.602 12.146-1.352 2.703-5.797 2.703-7.148 0-3.816-7.607-10.023-12.148-16.601-12.148-11.145 0-20.211 12.561-20.211 28 0 .236.031.465.055.691.035.338.066.678.086 1.023.062 1.268-.484 2.49-1.469 3.293-.98.803-2.293 1.09-3.52.775-3.777-.963-7.207-.812-10.207.443-3.883 1.633-6.898 4.877-8.723 9.381-2.793 6.914-2.359 15.957 1.16 24.189 1.379 3.221 3.25 6.271 5.559 9.064.547.66.867 1.479.914 2.332l6.527 120.59c.117 2.207-1.574 4.092-3.781 4.211-2.027.121-4.09-1.572-4.211-3.777l-6.456-119.305c-2.41-3.096-4.395-6.441-5.902-9.965-4.41-10.303-4.855-21.359-1.223-30.338 2.637-6.523 7.145-11.279 13.035-13.756 3.191-1.342 6.609-1.889 10.242-1.646 1.121-18.549 13.305-33.205 28.125-33.205 7.719 0 14.934 3.943 20.176 10.809 5.242-6.866 12.457-10.809 20.176-10.809 14.82 0 27.004 14.656 28.125 33.205 3.641-.242 7.051.305 10.242 1.646 5.891 2.477 10.398 7.232 13.035 13.756 3.633 8.979 3.188 20.035-1.223 30.338-1.508 3.523-3.492 6.869-5.902 9.965l-6.457 119.307c-.117 2.131-1.883 3.783-3.992 3.783z" fill="#4c241d" data-original="#4c241d" class=""/>
      </g>
      <g>
        <ellipse cx="104" cy="122" fill="#6b4f5b" rx="13" ry="16" transform="matrix(.866 -.5 .5 .866 -47.067 68.345)" data-original="#6b4f5b" class=""/>
        <path d="m106.52 141.291c-6.516 0-13.301-3.967-17.242-10.791-2.594-4.494-3.605-9.584-2.844-14.334.809-5.057 3.496-9.135 7.566-11.486 8.117-4.691 19.207-.729 24.723 8.82 2.594 4.494 3.605 9.584 2.844 14.334-.809 5.057-3.496 9.135-7.566 11.486-2.317 1.338-4.88 1.971-7.481 1.971zm-4.942-30.615c-1.262 0-2.48.301-3.578.934-1.945 1.121-3.246 3.189-3.668 5.822-.469 2.939.195 6.16 1.875 9.068 3.309 5.729 9.488 8.371 13.793 5.891 1.945-1.121 3.246-3.189 3.668-5.822.469-2.939-.195-6.16-1.875-9.068-2.465-4.269-6.527-6.825-10.215-6.825z" fill="#4c241d" data-original="#4c241d" class=""/>
      </g>
      <g>
        <ellipse cx="192" cy="122" fill="#6b4f5b" rx="16" ry="13" transform="matrix(.5 -.866 .866 .5 -9.655 227.277)" data-original="#6b4f5b" class=""/>
        <path d="m189.48 141.291c-2.602 0-5.164-.633-7.48-1.971-4.07-2.352-6.758-6.43-7.566-11.486-.762-4.75.25-9.84 2.844-14.334 5.516-9.547 16.605-13.512 24.723-8.82 4.07 2.352 6.758 6.43 7.566 11.486.762 4.75-.25 9.84-2.844 14.334-3.942 6.822-10.727 10.791-17.243 10.791zm4.942-30.615c-3.688 0-7.75 2.557-10.215 6.824-1.68 2.908-2.344 6.129-1.875 9.068.422 2.633 1.723 4.701 3.668 5.822 4.301 2.477 10.484-.164 13.793-5.891 1.68-2.908 2.344-6.129 1.875-9.068-.422-2.633-1.723-4.701-3.668-5.822-1.098-.633-2.316-.933-3.578-.933z" fill="#4c241d" data-original="#4c241d" class=""/>
      </g>
      <g fill="#4c241d">
        <circle cx="230" cy="182" r="4" fill="#4c241d" data-original="#4c241d" class=""/>
        <circle cx="62" cy="174" r="4" fill="#4c241d" data-original="#4c241d" class=""/>
        <path d="m60.344 81.656c-1.023 0-2.047-.391-2.828-1.172-1.562-1.562-1.562-4.094 0-5.656l11.312-11.313c1.562-1.562 4.094-1.562 5.656 0 1.562 1.563 1.562 4.094 0 5.656l-11.312 11.313c-.781.782-1.805 1.172-2.828 1.172z" fill="#4c241d" data-original="#4c241d" class=""/>
        <path d="m71.656 81.656c-1.023 0-2.047-.391-2.828-1.172l-11.312-11.312c-1.562-1.562-1.562-4.094 0-5.656s4.094-1.562 5.656 0l11.312 11.313c1.562 1.562 1.562 4.094 0 5.656-.781.781-1.804 1.171-2.828 1.171z" fill="#4c241d" data-original="#4c241d" class=""/>
        <path d="m244 234c-7.719 0-14-6.281-14-14s6.281-14 14-14 14 6.281 14 14-6.281 14-14 14zm0-20c-3.309 0-6 2.691-6 6s2.691 6 6 6 6-2.691 6-6-2.691-6-6-6z" fill="#4c241d" data-original="#4c241d" class=""/>
      </g>
      <g>
        <path d="m173.372 158.37c-2.575-11.649-12.948-20.37-25.372-20.37s-22.797 8.721-25.372 20.371c-7.214 1.55-12.628 7.951-12.628 15.629 0 8.836 7.163 16 16 16 3.577 0 6.845-1.215 9.509-3.198 3.708 2.036 7.963 3.198 12.491 3.198s8.783-1.162 12.491-3.198c2.665 1.983 5.933 3.198 9.509 3.198 8.837 0 16-7.164 16-16 0-7.678-5.414-14.079-12.628-15.63z" fill="#6b4f5b" data-original="#6b4f5b" class=""/>
        <path d="m170 194c-3.441 0-6.777-.893-9.777-2.604-7.664 3.418-16.781 3.418-24.445 0-3 1.711-6.336 2.604-9.777 2.604-11.027 0-20-8.973-20-20 0-8.5 5.48-16.062 13.348-18.848 3.835-12.39 15.514-21.152 28.651-21.152s24.816 8.762 28.652 21.152c7.868 2.785 13.348 10.348 13.348 18.848 0 11.027-8.973 20-20 20zm-9.508-11.197c.844 0 1.684.268 2.387.791 2.117 1.574 4.578 2.406 7.121 2.406 6.617 0 12-5.383 12-12 0-5.611-3.984-10.539-9.469-11.719-1.531-.328-2.727-1.52-3.066-3.047-2.207-9.986-11.235-17.234-21.465-17.234s-19.258 7.248-21.465 17.234c-.34 1.527-1.535 2.719-3.066 3.047-5.485 1.18-9.469 6.108-9.469 11.719 0 6.617 5.383 12 12 12 2.543 0 5.004-.832 7.121-2.406 1.25-.938 2.938-1.051 4.309-.299 6.453 3.539 14.688 3.539 21.141 0 .601-.33 1.261-.492 1.921-.492z" fill="#4c241d" data-original="#4c241d" class=""/>
      </g>
      <g>
        <ellipse cx="128" cy="84" fill="#6b4f5b" rx="10" ry="14" data-original="#6b4f5b" class=""/>
        <path d="m128 102c-7.852 0-14-7.906-14-18s6.148-18 14-18 14 7.906 14 18-6.148 18-14 18zm0-28c-2.84 0-6 4.107-6 10s3.16 10 6 10 6-4.107 6-10-3.16-10-6-10z" fill="#4c241d" data-original="#4c241d" class=""/>
      </g>
      <g>
        <ellipse cx="168" cy="84" fill="#6b4f5b" rx="10" ry="14" data-original="#6b4f5b" class=""/>
        <path d="m168 102c-7.852 0-14-7.906-14-18s6.148-18 14-18 14 7.906 14 18-6.148 18-14 18zm0-28c-2.84 0-6 4.107-6 10s3.16 10 6 10 6-4.107 6-10-3.16-10-6-10z" fill="#4c241d" data-original="#4c241d" class=""/>
      </g>
    </g>
  </g>
</svg>
