<?xml version="1.0" encoding="UTF-8"?>
<svg xmlns="http://www.w3.org/2000/svg" xmlns:xlink="http://www.w3.org/1999/xlink" xmlns:svgjs="http://svgjs.com/svgjs" version="1.1" width="512" height="512" x="0" y="0" viewBox="0 0 510.272 510.272" style="enable-background:new 0 0 512 512" xml:space="preserve" class="">
  <g>
    <g xmlns="http://www.w3.org/2000/svg">
      <path d="m388.209 232.464h-42.143v-89.361c0-3.441 2.79-6.231 6.231-6.231h29.68c3.441 0 6.231 2.79 6.231 6.231v89.361z" fill="#804e2b" data-original="#804e2b"/>
      <path d="m391.542 7.5c-9.975 0-18.831 4.784-24.404 12.181-5.573-7.397-14.429-12.181-24.404-12.181-16.866 0-30.538 13.672-30.538 30.538 0 6.043 1.755 11.676 4.784 16.417 5.424 8.491 20.372 23.361 50.158 41.008 28.312-17.286 44.734-32.517 50.158-41.008 3.028-4.741 4.784-10.374 4.784-16.417 0-16.866-13.672-30.538-30.538-30.538z" fill="#e592d0" data-original="#e592d0"/>
      <path d="m394.606 466.252h-279.803v-219.968l139.902-120.364 139.901 120.364z" fill="#f7f7f7" data-original="#f7f7f7" class=""/>
      <path d="m356.315 239.151 8.291 7.133v219.968h30v-219.968l-8.291-7.133z" fill="#e8e8e8" data-original="#e8e8e8" class=""/>
      <path d="m459.573 502.772h-408.874c-4.746 0-8.594-3.848-8.594-8.594v-16.356c0-6.39 5.18-11.57 11.57-11.57h402.922c6.39 0 11.57 5.18 11.57 11.57v16.356c-.001 4.746-3.848 8.594-8.594 8.594z" fill="#c27e4e" data-original="#c27e4e" class=""/>
      <path d="m456.597 466.252h-30c6.39 0 11.57 5.18 11.57 11.57v16.356c0 4.746-3.848 8.594-8.594 8.594h30c4.746 0 8.594-3.848 8.594-8.594v-16.356c-.001-6.39-5.18-11.57-11.57-11.57z" fill="#b36d3c" data-original="#b36d3c" class=""/>
      <path d="m106.563 275.692-17.919-20.428c-2.253-2.569-1.998-6.478.571-8.731l160.595-140.873c3.931-3.448 9.807-3.453 13.743-.012l156.633 136.907c2.573 2.249 2.835 6.157.587 8.73l-17.883 20.46c-2.249 2.573-6.158 2.836-8.73.587l-130.56-114.118c-3.937-3.441-9.813-3.436-13.743.012l-134.562 118.038c-2.569 2.253-6.478 1.997-8.732-.572z" fill="#c27e4e" data-original="#c27e4e" class=""/>
      <path d="m329.267 389.901c0 21.461-20.4 21.747-39.781 17.176-22.545-5.317-45.924-5.317-68.469 0-19.381 4.57-39.781 4.284-39.781-17.176 0-40.878 33.138-74.015 74.015-74.015 40.878 0 74.016 33.138 74.016 74.015z" fill="#3da4d4" data-original="#80b6fc" class=""/>
      <g fill="#62a4fb">
        <path d="m255.252 315.886c-21.729 0-41.27 9.364-54.81 24.275 7.757-2.76 16.105-4.275 24.81-4.275 40.538 0 73.445 32.594 73.99 73.002 15.905 2.061 30.026-1.133 30.026-18.987-.001-40.877-33.139-74.015-74.016-74.015z" fill="#3da4d4" data-original="#62a4fb" class=""/>
        <ellipse cx="228.02" cy="300.153" rx="27.232" ry="36.737" fill="#3da4d4" data-original="#62a4fb" class=""/>
        <ellipse cx="187.365" cy="343.832" rx="22.668" ry="30.58" fill="#3da4d4" data-original="#62a4fb" class=""/>
        <ellipse cx="282.483" cy="300.153" rx="27.231" ry="36.737" fill="#3da4d4" data-original="#62a4fb" class=""/>
        <ellipse cx="322.044" cy="343.832" rx="22.668" ry="30.58" fill="#3da4d4" data-original="#62a4fb" class=""/>
      </g>
      <path d="m363.315 101.915c1.179.699 2.501 1.047 3.823 1.047 1.354 0 2.71-.367 3.908-1.099 37.824-23.094 49.8-39.037 52.57-43.372 3.901-6.107 5.963-13.18 5.963-20.455.001-20.973-17.063-38.036-38.037-38.036-9.098 0-17.639 3.149-24.404 8.838-6.765-5.689-15.307-8.838-24.404-8.838-20.974 0-38.038 17.063-38.038 38.038 0 7.274 2.062 14.347 5.963 20.454 3.779 5.915 16.472 21.986 52.656 43.423zm-20.581-86.915c7.3 0 14.012 3.351 18.414 9.194 1.418 1.881 3.635 2.987 5.99 2.987s4.573-1.106 5.99-2.987c4.402-5.843 11.114-9.194 18.414-9.194 12.703 0 23.038 10.334 23.038 23.038 0 4.408-1.246 8.688-3.604 12.38-4.37 6.841-18.43 20.266-43.894 36.259-31.29-19.108-41.38-32.502-43.781-36.26-2.358-3.691-3.604-7.972-3.604-12.379-.001-12.704 10.334-23.038 23.037-23.038z" fill="#000000" data-original="#000000" class=""/>
      <path d="m456.597 458.752h-54.491v-67.684c0-4.142-3.358-7.5-7.5-7.5s-7.5 3.358-7.5 7.5v67.684h-264.803v-67.683c0-4.142-3.358-7.5-7.5-7.5s-7.5 3.358-7.5 7.5v67.683h-53.628c-10.515 0-19.07 8.555-19.07 19.069v16.356c0 8.874 7.22 16.094 16.094 16.094h408.874c8.874 0 16.094-7.22 16.094-16.094v-16.356c0-10.514-8.555-19.069-19.07-19.069zm4.07 35.426c0 .603-.491 1.094-1.094 1.094h-408.874c-.603 0-1.094-.491-1.094-1.094v-16.356c0-2.244 1.826-4.069 4.07-4.069h402.922c2.244 0 4.07 1.826 4.07 4.069z" fill="#000000" data-original="#000000" class=""/>
      <path d="m100.925 280.638c1.726 1.967 3.93 3.356 6.378 4.082v76.349c0 4.142 3.358 7.5 7.5 7.5s7.5-3.358 7.5-7.5v-80.977l132.499-116.228c1.101-.965 2.761-.966 3.862-.003l128.441 112.265v84.942c0 4.142 3.358 7.5 7.5 7.5s7.5-3.358 7.5-7.5v-80.276c2.472-.725 4.695-2.126 6.431-4.113l17.883-20.46c4.966-5.682 4.384-14.346-1.298-19.313l-29.42-25.715c.001-.054.008-.107.008-.162v-67.928c0-7.572-6.16-13.731-13.731-13.731h-29.68c-7.572 0-13.731 6.16-13.731 13.731v18.151l-70.078-61.252c-6.74-5.891-16.897-5.882-23.625.021l-160.594 140.874c-2.748 2.411-4.394 5.748-4.632 9.396-.239 3.648.958 7.171 3.369 9.919zm252.641-136.267h27.143v53.718l-27.143-23.725zm-98.811-33.073c1.101-.966 2.761-.966 3.862-.003l155.645 136.043-16.081 18.399c-.122-.067-.251-.122-.378-.182l-129.266-112.987c-6.74-5.891-16.896-5.882-23.626.02l-133.215 116.856c-.151.069-.303.137-.448.216l-16.1-18.355z" fill="#000000" data-original="#000000" class=""/>
      <path d="m352.211 343.832c0-20.997-13.533-38.08-30.168-38.08-1.765 0-3.492.203-5.174.572.222-2.018.345-4.076.345-6.171 0-24.393-15.581-44.238-34.731-44.238-11.028 0-20.865 6.589-27.232 16.829-6.367-10.241-16.204-16.829-27.232-16.829-19.151 0-34.732 19.845-34.732 44.238 0 2.187.13 4.336.372 6.439-2.032-.547-4.136-.84-6.295-.84-16.634 0-30.167 17.083-30.167 38.08 0 15.226 7.119 28.387 17.374 34.476-.545 3.826-.835 7.712-.835 11.594 0 11.474 4.911 17.77 9.03 21.03 8.313 6.581 21.762 7.741 39.973 3.446 21.27-5.016 43.756-5.016 65.026 0 7.179 1.693 13.616 2.539 19.293 2.538 8.722 0 15.644-1.997 20.68-5.983 4.12-3.261 9.03-9.557 9.03-21.031 0-4.098-.32-8.189-.926-12.223 9.711-6.334 16.369-19.124 16.369-33.847zm-69.728-72.917c10.695 0 19.731 13.389 19.731 29.238 0 15.848-9.036 29.237-19.731 29.237s-19.732-13.389-19.732-29.237c.001-15.849 9.037-29.238 19.732-29.238zm-54.463 0c10.696 0 19.732 13.389 19.732 29.238 0 15.848-9.036 29.237-19.732 29.237-10.695 0-19.732-13.389-19.732-29.237.001-15.849 9.037-29.238 19.732-29.238zm-40.655 49.836c8.222 0 15.168 10.569 15.168 23.08s-6.946 23.081-15.168 23.081-15.167-10.57-15.167-23.081c0-12.51 6.946-23.08 15.167-23.08zm131.062 78.42c-2.553 2.022-9.486 4.789-27.219.607-23.522-5.547-48.389-5.547-71.911 0-17.733 4.182-24.666 1.415-27.22-.607-.826-.654-3.34-2.644-3.34-9.27 0-2.699.173-5.4.496-8.069 15.767-1.222 28.301-17.795 28.301-38 0-.51-.015-1.015-.031-1.521 3.32 1.347 6.852 2.079 10.518 2.079 11.028 0 20.865-6.589 27.232-16.829 6.367 10.24 16.203 16.829 27.232 16.829 3.263 0 6.419-.589 9.415-1.665-.008.369-.022.736-.022 1.107 0 20.67 13.117 37.534 29.394 38.056.318 2.653.497 5.331.497 8.014-.002 6.625-2.516 8.615-3.342 9.269zm3.617-32.259c-8.222 0-15.168-10.57-15.168-23.081s6.946-23.08 15.168-23.08 15.168 10.569 15.168 23.08c-.001 12.511-6.946 23.081-15.168 23.081z" fill="#000000" data-original="#000000" class=""/>
    </g>
  </g>
</svg>
