<?xml version="1.0" encoding="UTF-8"?>
<svg xmlns="http://www.w3.org/2000/svg" xmlns:xlink="http://www.w3.org/1999/xlink" xmlns:svgjs="http://svgjs.com/svgjs" version="1.1" width="512" height="512" x="0" y="0" viewBox="0 0 64 64" style="enable-background:new 0 0 512 512" xml:space="preserve" class="">
  <g>
    <ellipse xmlns="http://www.w3.org/2000/svg" cx="47" cy="20" fill="#e98bc0" rx="4" ry="5" data-original="#ec87c0"/>
    <path xmlns="http://www.w3.org/2000/svg" d="m55 19.99a12.77712 12.77712 0 0 1 -.32 2.8l-.03.12c-.01.03-.01.06-.02.09l-7.63 27v13h-30v-11l-7.68-29.21a12.77712 12.77712 0 0 1 -.32-2.8c0-5.52 3.58-9.99 8-9.99a7.17714 7.17714 0 0 1 1.04.09c.36-5.09 3.79-9.09 7.96-9.09a7.42541 7.42541 0 0 1 6 3.4 7.42541 7.42541 0 0 1 6-3.4c4.17 0 7.6 4 7.96 9.09a7.17714 7.17714 0 0 1 1.04-.09c4.42 0 8 4.47 8 9.99zm-4 .01c0-2.76-1.79-5-4-5s-4 2.24-4 5 1.79 5 4 5 4-2.24 4-5zm-9-9c0-2.76-1.79-5-4-5s-4 2.24-4 5 1.79 5 4 5 4-2.24 4-5zm-8.37 28c6.26 0 9.09-4.12 6.29-9.15l-2.83-5.08c-2.8-5.03-7.38-5.03-10.18 0l-2.83 5.08c-2.8 5.03.03 9.15 6.29 9.15zm-3.63-28c0-2.76-1.79-5-4-5s-4 2.24-4 5 1.79 5 4 5 4-2.24 4-5zm-9 9c0-2.76-1.79-5-4-5s-4 2.24-4 5 1.79 5 4 5 4-2.24 4-5z" fill="#d2aa84" data-original="#ffd2a6" class=""/>
    <g xmlns="http://www.w3.org/2000/svg" fill="#ec87c0">
      <ellipse cx="38" cy="11" rx="4" ry="5" fill="#e98bc0" data-original="#ec87c0"/>
      <ellipse cx="26" cy="11" rx="4" ry="5" fill="#e98bc0" data-original="#ec87c0"/>
      <ellipse cx="17" cy="20" rx="4" ry="5" fill="#e98bc0" data-original="#ec87c0"/>
      <path d="m39.92 29.85c2.8 5.03-.03 9.15-6.29 9.15h-3.26c-6.26 0-9.09-4.12-6.29-9.15l2.83-5.08c2.8-5.03 7.38-5.03 10.18 0z" fill="#e98bc0" data-original="#ec87c0"/>
    </g>
    <path xmlns="http://www.w3.org/2000/svg" d="m47 25.99707c-2.75684 0-5-2.69141-5-6s2.24316-6 5-6 5 2.69141 5 6-2.24316 6-5 6zm0-10c-1.6543 0-3 1.79395-3 4s1.3457 4 3 4 3-1.79394 3-4-1.3457-4-3-4z" fill="#000000" data-original="#000000"/>
    <path xmlns="http://www.w3.org/2000/svg" d="m38 17.00293c-2.75684 0-5-2.69141-5-6s2.24316-6 5-6 5 2.69141 5 6-2.24316 6-5 6zm0-10c-1.6543 0-3 1.79395-3 4s1.3457 4 3 4 3-1.79395 3-4-1.3457-4-3-4z" fill="#000000" data-original="#000000"/>
    <path xmlns="http://www.w3.org/2000/svg" d="m17 25.99707c-2.75684 0-5-2.69141-5-6s2.24316-6 5-6 5 2.69141 5 6-2.24316 6-5 6zm0-10c-1.6543 0-3 1.79395-3 4s1.3457 4 3 4 3-1.79394 3-4-1.3457-4-3-4z" fill="#000000" data-original="#000000"/>
    <path xmlns="http://www.w3.org/2000/svg" d="m47 63.99707a.99943.99943 0 0 1 -1-1v-13a.98.98 0 0 1 .03809-.27148l7.64843-27.082a.6912.6912 0 0 1 .01563-.07812 11.41649 11.41649 0 0 0 .29785-2.57524c0-4.959-3.14062-8.99316-7-8.99316a5.31222 5.31222 0 0 0 -.876.08106.99892.99892 0 0 1 -1.1582-.916c-.32908-4.57522-3.38865-8.1592-6.9658-8.1592a6.44934 6.44934 0 0 0 -5.18262 2.97461 1.03763 1.03763 0 0 1 -1.63476 0 6.44934 6.44934 0 0 0 -5.18262-2.97461c-3.57715 0-6.63672 3.584-6.96582 8.15918a.99892.99892 0 0 1 -1.1582.916 5.31222 5.31222 0 0 0 -.87598-.08104c-3.85937 0-7 4.03418-7 8.99316a11.41649 11.41649 0 0 0 .29785 2.5752c.00586.02246.00977.04492.01367.06738l7.65528 29.11035a.96925.96925 0 0 1 .0332.25391v11a1 1 0 1 1 -2 0v-10.87107l-7.64746-29.0801a.94225.94225 0 0 1 -.02539-.127 13.402 13.402 0 0 1 -.32715-2.92867c0-6.06152 4.03711-10.99316 9-10.99316.0498 0 .10059.001.15137.00195.76763-5.19531 4.43457-8.99609 8.84863-8.99609a8.14068 8.14068 0 0 1 6 2.80371 8.14069 8.14069 0 0 1 6-2.80371c4.41406 0 8.081 3.80078 8.84863 8.99609.05078-.001.10157-.00195.15137-.00195 4.96289 0 9 4.93164 9 10.99316a13.37681 13.37681 0 0 1 -.33008 2.93946c-.00488.0332-.01074.0664-.01855.09961l-.0293.12011c-.001.00391-.02441.09961-.02539.1045l-7.59668 26.88183v12.86133a.99943.99943 0 0 1 -1 1z" fill="#000000" data-original="#000000"/>
    <path xmlns="http://www.w3.org/2000/svg" d="m26 17.00293c-2.75684 0-5-2.69141-5-6s2.24316-6 5-6 5 2.69141 5 6-2.24316 6-5 6zm0-10c-1.6543 0-3 1.79395-3 4s1.3457 4 3 4 3-1.79395 3-4-1.3457-4-3-4z" fill="#000000" data-original="#000000"/>
    <path xmlns="http://www.w3.org/2000/svg" d="m33.626 39.99707h-3.252c-3.52832 0-6.293-1.26172-7.58593-3.46094-1.1836-2.01367-1.03418-4.56054.41894-7.17187l2.82813-5.08106c1.53908-2.76367 3.65724-4.28613 5.96486-4.28613s4.42578 1.52246 5.96484 4.28613l2.82816 5.08106c1.45312 2.61133 1.60254 5.1582.41894 7.17187-1.29294 2.19922-4.05764 3.46094-7.58594 3.46094zm-1.626-18c-1.5498 0-3.04687 1.15723-4.2168 3.25879l-2.82812 5.08105c-1.0957 1.9668-1.25195 3.8086-.44238 5.18555.92382 1.57324 3.06054 2.47461 5.86132 2.47461h3.252c2.80078 0 4.9375-.90137 5.86132-2.47461.80958-1.377.65333-3.21875-.44238-5.18555l-2.82816-5.08105c-1.16992-2.10156-2.667-3.25879-4.2168-3.25879z" fill="#000000" data-original="#000000"/>
  </g>
</svg>
