<?xml version="1.0" encoding="UTF-8"?>
<svg xmlns="http://www.w3.org/2000/svg" xmlns:xlink="http://www.w3.org/1999/xlink" xmlns:svgjs="http://svgjs.com/svgjs" version="1.1" width="512" height="512" x="0" y="0" viewBox="0 0 512 512" style="enable-background:new 0 0 512 512" xml:space="preserve" class="">
  <g>
    <g xmlns="http://www.w3.org/2000/svg">
      <g>
        <g>
          <g>
            <path d="m118 415.1s-33.2.2-30-24.4l21.8-5.3s-29-81.3 84.9-156.2c0 0 19.7-29.4 38.6-42.8 0 0 18.7-45.6 3.5-55.7-15.2-10.2-27.2-48.2-15.5-55.8s55.1-24.7 55.1-24.7 6.6 22.1 0 34.8l26-5.4s3.4-13.7 13.9-21.9c10.5-8.3 19.6-14.6 25-13.9s11.4 6.5 11.4 6.5 15.1 25.1 17.6 26.7 5.4 9.4-2.2 7.4c-7.7-2-21.1-6.2-21.9-4.7s-1.9 12.2-1.9 12.2 24.3 7.5 24.1 14.6-2.9 23.7-2.9 23.7 19.4 1.2 25 16.9c0 0 13.9 5.7 13 19.7-1 14-10.3 52.2-10.3 52.2l-2 27.7s-18.1-9.4-22.8-12.5c0 0-14.1 23.9-16.8 23.9-2.8 0-7.2-2.5-7.2-2.5s.8 38.8-6.5 48.6c-7.2 9.8-8.3 14.1-8.3 14.1s18.7 72.6 28.1 73.3 22.3 8.5 24.1 14.5c1.8 6.1 1.8 6.1 1.8 6.1s-25 20.4-58.5 7.1c0 0 8.3 13.9 12.6 18.6 4.3 4.6 11.1 14.6 6.5 23.1s-22.5 17.8-42.5 9.3c-19.9-8.4-25.2-6.3-26.3-14.7s-10.4-40.2-10.4-40.2-4.7 4.9-15.9 3.1-37.9-6.2-37.9-6.2 22.7 13.5 22.1 25.8c-.6 12.4-2.7 16.6-2.7 16.6s-20 13.4-45.2 4.3-55.2-20.7-57.3-21.4-11.9-8.1-11.1-12.6c.9-4.4 1-9.9 1-9.9z" fill="#a599aa" data-original="#a599aa"/>
          </g>
        </g>
      </g>
      <g>
        <g>
          <g>
            <path d="m325.7 258.1s-46.7-47.1-20.5-89.9v13.7s12-33.1 46.4-37.8 34.6 17.3 34.6 17.3 14.3-1.7 13.1 19.7c-1.1 21.4-8.9 53.1-8.9 53.1l.8 12.5-22.8-12.5-19.3 23.5-20.7-16.6z" fill="#ffffff" data-original="#ffffff"/>
          </g>
        </g>
      </g>
      <g>
        <g>
          <g>
            <path d="m301 117.8c8.3-3.4 5.8-15.8-3.1-15.8-1.6 0-3.4.2-5.5.6-18.7 3.9-25.6 26.1-26.1 33.5 0 0 17.5-14.6 22.4-17.1l-5 7.2c-.1.1 9-5 17.3-8.4z" fill="#ffffff" data-original="#ffffff"/>
          </g>
        </g>
      </g>
      <g>
        <g>
          <g>
            <path d="m347.2 97.1c-7.8-1.6-11.6 9.7-4.3 12.8.7.3 1.5.5 2.4.7 10.5 1.9 22.1 6.4 22.1 6.4s4.9-14.7-20.2-19.9z" fill="#ffffff" data-original="#ffffff"/>
          </g>
        </g>
      </g>
      <g>
        <g>
          <g>
            <path d="m308.3 243.7s-7.4 26.4-14.4 27.3c5.6 13.4 5.6 33.7 2.4 57.8 0 0 21.7 87.4 28.7 90.7s17.4 9.4 33 5.6 25.5-12.7 25.5-12.7-4.4-18.3-15.5-20.6c-11.1-2.4-13-1.7-13-1.7s-34.9-53.3-22.2-79.6 9.1-42.2 8.8-56.1l-16.2-15.8.2 19.5z" fill="#ffffff" data-original="#ffffff"/>
          </g>
        </g>
      </g>
      <g>
        <g>
          <g>
            <path d="m235.9 359.5-18.1 9.7s-5.7 25.4-6.6 31.1-4.4 13-4.4 13 14.9.7 20.9 1.7 18.4 6.2 27 3.9 10.3-3.5 10.3-3.5-34.5-41.1-29.1-55.9z" fill="#d1c5c1" data-original="#d1c5c1"/>
          </g>
        </g>
      </g>
      <g>
        <g>
          <g>
            <path d="m182.5 330.9s26.8 31.5 21.3 52.1c-5.5 20.7-9.8 27.1-9.8 27.1s24.4 19.1 24.2 33.6-.2 14.5-.2 14.5l12.5-3.6s.8-31.8-23.8-41.3c.1.1 37.5-64.3-24.2-82.4z" fill="#ffffff" data-original="#ffffff"/>
          </g>
        </g>
      </g>
      <g>
        <g>
          <g>
            <path d="m321.1 298s-4.2 33.8 1.2 47.9l-7.6-4.1s16.9 49 31.4 62.3 22.7 17.2 22.7 17.2-37.7 4-43.9-2-28.7-90.7-28.7-90.7 23-23.2 24.9-30.6z" fill="#d1c5c1" data-original="#d1c5c1"/>
          </g>
        </g>
      </g>
      <g>
        <g>
          <g>
            <path d="m327.4 243.1s6.8 9.3 6.4 21.5-16.7 40.8-16.7 40.8l-18.7 21.2v-41.8l-4.4-13.9s5 1.5 14.4-27.3l14.4 11.9z" fill="#d1c5c1" data-original="#d1c5c1"/>
          </g>
        </g>
      </g>
      <g>
        <g>
          <g>
            <path d="m353.4 195.5s3 11.6 0 26.8-12.1 18.2-12.1 18.2l-12.8.6s17.6 16 22.3 14.6 18.1-19.4 18.1-19.4-2.1-20.3-.8-25.1 6.8-15.6 6.8-15.6l-2-7.2c0-.1-14.3 10.3-19.5 7.1z" fill="#d1c5c1" data-original="#d1c5c1"/>
          </g>
        </g>
      </g>
      <g>
        <g>
          <g>
            <path d="m389.1 246.1s-9.9-7.1-5.6-31.2 7.3-40.2 4-43.6c-3.3-3.5-10.6-9.8-10.6-9.8l-13 9.7-.5 9.9s11.2 1.7 12.5 8.3-3.3 7.7-5.6 21.8-5.2 30.1 18.8 34.9z" fill="#d1c5c1" data-original="#d1c5c1"/>
          </g>
        </g>
      </g>
      <g>
        <g>
          <g>
            <path d="m343 157.7s-26.3 12.1-24.5 40.8l-7.5-7.5s-7.8 28.5 11.3 60.7l3.1-13.1 17.5 2.7s-15.2-46.4-6.3-52.3 24.4-7.8 24.4-7.8l.8-9.8c.1-.2-17.4-9-18.8-13.7z" fill="#d1c5c1" data-original="#d1c5c1"/>
          </g>
        </g>
      </g>
      <g>
        <g>
          <g>
            <path d="m255.3 157.7s-11.8 28.9 0 43.1 43 30 43 30l-9.6-27.1c-.1-.1-42.7-15-33.4-46z" fill="#6a5b70" data-original="#6a5b70"/>
          </g>
        </g>
      </g>
      <g>
        <g>
          <g>
            <path d="m261.3 99.9s-9.7 11.9-11.3 20.7c0 0-25.5-24.7-21-34.9s12.3 1.5 12.3 1.5z" fill="#6a5b70" data-original="#6a5b70"/>
          </g>
        </g>
      </g>
      <g>
        <g>
          <g>
            <path d="m325 84.2s-8.6-24.1-1.9-31.8c0 0-19 14.7-22.8 26.8z" fill="#6a5b70" data-original="#6a5b70"/>
          </g>
        </g>
      </g>
      <g>
        <g>
          <g>
            <path d="m235.9 317.2c2.2-3.6-53.1 19-77.5 9.5 0 0 60 6.1 59.4 42.5l12.8-6.9s-3.9-30 5.3-45.1z" fill="#6a5b70" data-original="#6a5b70"/>
          </g>
        </g>
      </g>
      <g>
        <g>
          <g>
            <path d="m170.7 246.6s-68.3 96.4-32.3 165.9c22.8 44 44.1 48.5 44.1 48.5l-54.4-23.5-10.2-5.9v-16.7s-28 10.4-30-24.4c0 0 9.5 11 25.2 9.6 0 0-13.4-67 13.6-106.4 27-39.2 44-47.1 44-47.1z" fill="#6a5b70" data-original="#6a5b70"/>
          </g>
        </g>
      </g>
      <g>
        <g>
          <g>
            <path d="m254.8 154.2s12.2 23.4 22.6 23.4 13.4 0 13.4 0l-2.4 23.1c-.1.1-39.3-6.1-33.6-46.5z" fill="#6a5b70" data-original="#6a5b70"/>
          </g>
        </g>
      </g>
      <g>
        <g>
          <g>
            <path d="m319.1 140.7 38.9-10c0-.1-18.9-23.2-38.9 10z" fill="#6a5b70" data-original="#6a5b70"/>
          </g>
        </g>
      </g>
      <g>
        <g>
          <g>
            <path d="m365.3 171.2s14.5-16.8 9.6-22.3c-4.8-5.5-13.2-6.8-18.1-2.8-5 4-16.4 10.1-12.4 15.4 3.8 5.2 20.9 9.7 20.9 9.7z" fill="#5b4d60" data-original="#5b4d60"/>
          </g>
        </g>
      </g>
      <g>
        <g>
          <g>
            <path d="m356.8 146.1s12.4 3.9 13.5 6.6-6.4 18.5-6.4 18.5 12.4-9.5 12.3-17c0-7.5-14.8-10.5-19.4-8.1z" fill="#ffffff" data-original="#ffffff"/>
          </g>
        </g>
      </g>
      <g>
        <g>
          <g>
            <path d="m250 61c1.2-.5 22.1-3.8 24.1 0s0 30.8 0 30.8 4.5-40.7 2.3-41.6-26.4 10.8-26.4 10.8z" fill="#ffffff" data-original="#ffffff"/>
          </g>
        </g>
      </g>
      <g>
        <g>
          <g>
            <path d="m366.5 73.4s-10-21.2-12.4-20.9c-2.5.3-21.3 2.1-23.2 10.4-2 8.4 2.9 25.7 2.9 25.7l10.6 3.2s1.5-16.2 7.2-14.3 19.9 7.3 21.2 5.7c1.3-1.5-6.3-9.8-6.3-9.8z" fill="#6a5b70" data-original="#6a5b70"/>
          </g>
        </g>
      </g>
      <g>
        <g>
          <g>
            <path d="m370.3 186.4-9.2-5.3-19.8 6.9s9.3 8.9 18.2 7.6 10.8-9.2 10.8-9.2z" fill="#f583a2" data-original="#b73558" class=""/>
          </g>
        </g>
      </g>
      <g>
        <g>
          <g>
            <g>
              <path d="m204.2 415.7c-.6 0-1.2-.2-1.8-.5-1.4-1-1.8-2.9-.8-4.4 7.9-11.6 16.4-29.4 12.6-48.5-6.6-33.4-57.4-30.3-57.9-30.3-1.7.1-3.2-1.2-3.3-2.9s1.2-3.2 2.9-3.3c2.3-.2 56.9-3.5 64.5 35.3 4.2 21.3-5.1 40.7-13.6 53.3-.6.8-1.6 1.3-2.6 1.3z" fill="#000000" data-original="#3f0f33" class=""/>
            </g>
          </g>
        </g>
        <g>
          <g>
            <g>
              <path d="m114.2 418.4c-15.5 0-23.3-8.1-26.6-13.2-3.6-5.5-5-12.2-3.3-15.4.8-1.4 2.1-2.2 3.6-2.2 2.4 0 13.6-3 20.9-5.1 1.7-.5 3.4.5 3.9 2.1.5 1.7-.5 3.4-2.1 3.9-2.7.8-15 4.4-20.7 5.2.1 2 1.2 6 4.3 9.9 3.6 4.5 10.6 9.5 23.5 8.5 1.8-.2 3.2 1.1 3.4 2.9.1 1.7-1.1 3.2-2.9 3.4-1.3-.1-2.7 0-4 0z" fill="#000000" data-original="#3f0f33" class=""/>
            </g>
          </g>
        </g>
        <g>
          <g>
            <g>
              <path d="m316.4 476c-3.8 0-7.6-.5-11.1-1.4-15.8-4.2-29.4-7.8-32-21.5-1.5-7.7-5.9-31.3-22.2-54.1-25.8-36-31.8-62.7-18.3-81.6 1-1.4 3-1.7 4.4-.7s1.7 3 .7 4.4c-11.6 16.2-5.4 41.2 18.3 74.3 17.1 23.9 21.7 48.5 23.3 56.6 1.7 8.9 9.6 11.8 27.4 16.5 9.9 2.6 22.2.7 30-4.6 2.5-1.8 5.7-4.6 6.1-8.5.7-6.7-1.8-9.3-6.4-14.1-2.4-2.5-5.1-5.3-7.8-9.3-7.8-11.3-23.2-45.4-27.3-62.3-.4-1.6-.8-3.3-1.3-5.1-4.4-17.3-11.1-43.5-6-72.5 5.1-28.7-23.1-42.7-24.3-43.2-1.6-.8-2.2-2.6-1.5-4.2.8-1.6 2.6-2.2 4.2-1.5.3.2 33.7 16.6 27.8 50-4.9 27.7 1.6 53.1 5.9 69.9.5 1.8.9 3.6 1.3 5.2 3.9 16 19.1 49.5 26.4 60.2 2.4 3.6 5 6.2 7.2 8.5 4.9 5.1 9.1 9.5 8.1 19.1-.5 4.9-3.6 9.4-8.8 13-6.5 4.5-15.4 6.9-24.1 6.9z" fill="#000000" data-original="#3f0f33" class=""/>
            </g>
          </g>
        </g>
        <g>
          <g>
            <g>
              <path d="m250.2 421.7c-1.9 0-3.8-.1-5.6-.4-2.7-.4-5.9-1.2-9.6-2-8.6-2-19.4-4.6-27.8-3.6-1.7.2-3.3-1-3.5-2.7s1-3.3 2.7-3.5c9.6-1.2 20.9 1.5 30 3.7 3.6.8 6.6 1.6 9.1 1.9 8.1 1.2 18.6-1.5 18.7-1.5 1.7-.4 3.4.5 3.8 2.2s-.5 3.4-2.2 3.8c-.3.1-7.8 2.1-15.6 2.1z" fill="#000000" data-original="#3f0f33" class=""/>
            </g>
          </g>
        </g>
        <g>
          <g>
            <g>
              <path d="m211.3 403.4c-1.5 0-2.8-1.1-3.1-2.6-.3-1.7.9-3.3 2.6-3.6 16.2-2.7 31.2-16.3 31.4-16.5 1.3-1.2 3.3-1.1 4.4.2 1.2 1.3 1.1 3.3-.2 4.4-.7.6-16.6 15.1-34.6 18-.2.1-.4.1-.5.1z" fill="#000000" data-original="#3f0f33" class=""/>
            </g>
          </g>
        </g>
        <g>
          <g>
            <g>
              <path d="m202.3 464.2c-3 0-5.9-.1-8.5-.4-10.3-.9-25.9-7.3-40.9-13.6-9.7-4-18.8-7.8-25.5-9.6-6.2-1.7-10.4-4.9-12.3-9.4-2.3-5.4-.5-10.9.6-13.5-39.9-104.5 33.4-157.9 64.7-180.7 5.2-3.8 10.6-7.7 11.4-9.2 6.7-12.9 31.5-37.7 39.5-43.9 3.1-2.4 6.7-15.8 6.8-31.2.1-11.7-2-18.6-4.2-20.3-10.1-8-19.5-39.4-19-52.4.5-13.2 46.4-28.4 60.4-32.7 1.4-.4 2.9.1 3.6 1.4 11.7 19.1-5 51.2-9.7 54.4-6.9 4.6-29.3-12.4-34.4-17.1-1.8-1.7-2.6-1.7-2.6-1.7-.5.4-1.3 3.3-1.4 5.7 0 1.7-1.5 3.1-3.2 3.1s-3.1-1.5-3.1-3.2c.1-2.2.6-9.3 5.3-11.3 2.8-1.2 5.9-.2 9.2 2.9 9.1 8.5 23.4 16.3 26.8 16.3 3.1-3.2 15.8-28.1 8.8-43.6-26.1 8.3-53.3 20.5-53.5 26.2-.5 11.2 8.3 40.8 16.6 47.3 5.5 4.4 6.6 16.2 6.6 25.3-.1 11.7-2.6 31.1-9.3 36.2-8.5 6.5-31.9 30.5-37.8 41.8-1.4 2.7-5.3 5.6-13.2 11.4-30.3 22.1-101.3 73.8-62.2 174.7.3.9.3 1.8-.2 2.6 0 0-2.7 5.2-.9 9.5 1.1 2.6 3.9 4.6 8.2 5.7 7.1 2 16.4 5.8 26.3 9.9 13.9 5.8 29.7 12.3 39.1 13.1 17.5 1.5 33.3-2.1 34.8-6.1.8-2.2 7.1-22-15.7-32.2-21.6-9.6-43.3-7-43.6-7-1.7.2-3.3-1-3.5-2.7s1-3.3 2.7-3.5c1-.1 23.8-2.9 46.9 7.5 22.7 10.1 22.6 29.9 19 40-2.7 7.7-19 10.3-32.6 10.3z" fill="#000000" data-original="#3f0f33" class=""/>
            </g>
          </g>
        </g>
        <g>
          <g>
            <g>
              <path d="m333.3 90.3c-1.1 0-2.2-.6-2.8-1.7-.4-.8-10.4-20.1-1.5-30.5 8.6-9.9 24.6-8.9 25.3-8.9 1.7.1 3 1.6 2.9 3.4-.1 1.7-1.6 3-3.4 2.9-.1 0-13.6-.8-20.1 6.7-5.1 5.9-.1 18.9 2.3 23.4.8 1.5.2 3.4-1.3 4.2-.4.4-.9.5-1.4.5z" fill="#000000" data-original="#3f0f33" class=""/>
            </g>
          </g>
        </g>
        <g>
          <g>
            <g>
              <path d="m363.5 174.4c-.4 0-.8 0-1.1-.1-4.5-1-21-7.1-20.2-17.8.3-4.3 3.6-8.4 9.8-12.3 7.7-4.8 17.7-4.1 24.3 1.7 2 1.8 3.2 3.6 3.7 5.5 1.3 5.4-4.7 14.5-9.1 19-2.9 2.6-5.3 4-7.4 4zm-.4-27.2c-2.7 0-5.4.7-7.8 2.3-4.2 2.6-6.7 5.4-6.9 7.4-.4 5.1 10.5 10 15.1 11.2 1.2-.4 4.3-3.2 7.3-7.9 2.5-4 3.2-6.7 3-7.4-.1-.3-.4-1-1.7-2.2-2.5-2.3-5.8-3.4-9-3.4z" fill="#000000" data-original="#3f0f33" class=""/>
            </g>
          </g>
        </g>
        <g>
          <g>
            <g>
              <path d="m333.7 194.1c-.6 0-1.2-.2-1.8-.5-1.4-1-1.8-2.9-.8-4.4 2.3-3.5 10-5.4 21.5-7.8 3-.6 6.3-1.4 7.2-1.7.5-.7.7-4.7.2-7.9-.3-1.7.9-3.3 2.6-3.6s3.3.9 3.6 2.6c.6 3.7 1.4 12.4-3.8 14.7-1.4.6-4 1.2-8.4 2.1-4.8 1-16 3.4-17.6 5.2-.7.8-1.7 1.3-2.7 1.3z" fill="#000000" data-original="#3f0f33" class=""/>
            </g>
          </g>
        </g>
        <g>
          <g>
            <g>
              <path d="m325.7 261.2c-.5 0-1.1-.1-1.6-.4-.4-.3-43.9-26.1-38.6-72 5.3-46.1 37.1-52.8 38.4-53.1 1.7-.3 3.4.8 3.7 2.5s-.8 3.3-2.5 3.7c-1.2.2-28.6 6.3-33.4 47.7-3.8 33 20.3 54.8 30.8 62.6v-15.2c0-1.2.7-2.3 1.7-2.8s2.3-.4 3.3.2c1.9 1.4 5.9 2.2 9.5 2.7-13.9-48.9-1.4-65.9-.9-66.7 1-1.4 3-1.6 4.4-.6s1.6 3 .6 4.4c-.2.3-11.6 17.1 3.2 65.4.3 1 .1 2-.5 2.8s-1.5 1.3-2.6 1.2c-.9 0-7.1-.2-12.4-1.8v16.3c0 1.1-.6 2.2-1.6 2.7-.5.3-1 .4-1.5.4z" fill="#000000" data-original="#3f0f33" class=""/>
            </g>
          </g>
        </g>
        <g>
          <g>
            <g>
              <path d="m374.9 197.1c-.1 0-.2 0-.3 0-1.7-.1-3-1.7-2.9-3.4.4-4.7-7.8-8-10.7-8.8-1.7-.5-2.6-2.2-2.2-3.9.5-1.7 2.2-2.6 3.9-2.2.7.2 16.2 4.6 15.3 15.4-.1 1.7-1.5 2.9-3.1 2.9z" fill="#000000" data-original="#3f0f33" class=""/>
            </g>
          </g>
        </g>
        <g>
          <g>
            <g>
              <path d="m391.2 249.8c-.2 0-.4 0-.6-.1-.9-.2-22.9-4.8-26.4-21.9l-.1-.6c-1-4.7-2.5-11.8 4.8-25.6 6.4-12 5-20 5-20.1-.3-1.7.8-3.3 2.5-3.7 1.7-.3 3.3.7 3.7 2.4.1.4 2 10.1-5.6 24.3-6.3 11.8-5.1 17.1-4.2 21.3l.1.6c1.9 8.9 11 13.5 16.7 15.6-.8-9.7 3.1-24.6 7.2-40.2 3.1-11.9 6.1-23.1 6.3-30.3.5-15.7-9.5-19.1-9.9-19.3-.9-.3-1.7-1-2-1.9-6.9-18.6-24.2-18.5-36.6-16.8-1.7.2-3.3-1-3.5-2.7s1-3.3 2.7-3.5c21.9-3 36.3 3.5 42.8 19.5 3.8 1.8 13.4 7.9 12.9 24.9-.3 7.8-3.3 19.4-6.5 31.6-4.3 16.4-9.2 35-6.2 41.8.5 1.1.3 2.3-.4 3.2-.9 1.1-1.8 1.5-2.7 1.5z" fill="#000000" data-original="#3f0f33" class=""/>
            </g>
          </g>
        </g>
        <g>
          <g>
            <g>
              <path d="m356.6 198.6c-13 0-17.9-9.6-18.1-10-.8-1.6-.1-3.4 1.4-4.2 1.6-.8 3.4-.1 4.2 1.4.2.3 4 7.5 14.8 6.4 4.9-.5 6.2-2 6.5-2.6.5-.9.1-2 .1-2-.7-1.6 0-3.4 1.5-4.2 1.6-.7 3.4 0 4.2 1.5.2.4 1.8 4-.3 7.7-1.8 3.2-5.6 5.1-11.3 5.7-1.1.3-2.1.3-3 .3z" fill="#000000" data-original="#3f0f33" class=""/>
            </g>
          </g>
        </g>
        <g>
          <g>
            <g>
              <path d="m365.1 129.4c-.3 0-.6 0-.9-.1-1.7-.5-2.6-2.2-2.1-3.9 2.1-7 3.9-16 3.3-18.1-1.2-2.1-12.6-8.3-22.4-12.6-1-.5-1.7-1.4-1.8-2.5-1-9.4.1-14.5 3.6-16.9 4.5-3.1 10.5 0 17.5 3.5l1.5.8c4.4 2.2 6.3 1.7 6.9 1.4-8-4.8-12.4-13.4-16.3-21.1-3.4-6.9-6.4-12.7-10.3-13-8.6-.7-13 2.8-20.1 8.6-1.5 1.2-3.2 2.6-5 3.9-9.6 7.4-15.8 21.2-15.8 21.4-.5 1.1-1.5 1.8-2.6 1.9-14.8 1.1-23.6 7-23.6 7.1-1.4 1-3.4.6-4.4-.8s-.6-3.4.8-4.4c.4-.3 9.5-6.5 24.9-8 2.1-4.3 8.1-15.4 17-22.1 1.7-1.3 3.3-2.6 4.8-3.8 7.5-6 13.4-10.8 24.5-10 7.5.6 11.3 8.2 15.4 16.3 3.9 7.7 8.3 16.4 16.1 19.7 1.3.5 2 1.8 1.9 3.2 0 .5-.6 4.5-4.3 6.5-3.2 1.8-7.5 1.3-12.7-1.3l-1.5-.8c-3.9-2-9.7-4.9-11.1-3.9-.2.1-1.6 1.4-1 9.3 10.6 4.8 22.8 11.2 24.1 15.8 1.5 5-2.1 17.9-3.3 21.7-.5 1.4-1.7 2.2-3.1 2.2z" fill="#000000" data-original="#3f0f33" class=""/>
            </g>
          </g>
        </g>
        <g>
          <g>
            <g>
              <path d="m287.6 206.8c-.3 0-.7-.1-1-.2-15.4-5.3-25.9-13.7-31.2-24.8-7.3-15.5-1.9-30.6-1.7-31.2.6-1.6 2.4-2.5 4-1.9s2.5 2.4 1.9 4c0 .1-4.7 13.4 1.5 26.4 4.6 9.6 13.8 16.8 27.5 21.5 1.6.6 2.5 2.4 1.9 4-.4 1.3-1.6 2.2-2.9 2.2z" fill="#000000" data-original="#3f0f33" class=""/>
            </g>
          </g>
        </g>
        <g>
          <g>
            <g>
              <path d="m348.8 261.2c-.5 0-1.1-.1-1.5-.4-.7-.4-17.2-9.7-24.3-22.4-.9-1.5-.3-3.4 1.2-4.3s3.4-.3 4.3 1.2c5.2 9.2 16.7 16.8 20.6 19.2 4.6-2.7 13.4-14.2 18.7-22.2 1-1.4 2.9-1.8 4.3-.9 1.4 1 1.8 2.9.9 4.3-2.5 3.8-15.5 23-23.3 25.2-.3.3-.6.3-.9.3z" fill="#000000" data-original="#3f0f33" class=""/>
            </g>
          </g>
        </g>
        <g>
          <g>
            <g>
              <path d="m347.9 428.1c-7.5 0-15.8-1.6-24.4-5.9-1.5-.8-2.2-2.7-1.4-4.2s2.7-2.2 4.2-1.4c25.4 12.8 47.8-1.3 53.6-5.5-3.9-15-15.9-17.3-21.9-16.3-1.9.3-6.2 1-16.4-19.7-9-18.3-22.8-56-10.9-67.1 16.4-15.2 7.4-53.7 7.3-54.1-.4-1.7.6-3.4 2.3-3.8s3.4.6 3.8 2.3 9.9 42.5-9.2 60.2c-2.7 2.5-3.3 8.8-1.9 17.9 3.9 24.3 19.8 55 24.4 58 9.7-1.3 25 3.7 28.9 23.2.2 1.1-.2 2.3-1 3 .1.2-15.7 13.4-37.4 13.4z" fill="#000000" data-original="#3f0f33" class=""/>
            </g>
          </g>
        </g>
        <g>
          <g>
            <g>
              <path d="m296.3 331.9c-.9 0-1.7-.4-2.3-1.1-1.2-1.3-1-3.3.3-4.4.2-.2 23.8-21.3 28.4-39.5.4-1.7 2.2-2.7 3.8-2.3 1.7.4 2.7 2.1 2.3 3.8-5.2 20-29.3 41.7-30.3 42.6-.7.6-1.5.9-2.2.9z" fill="#000000" data-original="#3f0f33" class=""/>
            </g>
          </g>
        </g>
        <g>
          <g>
            <g>
              <circle cx="298.2" cy="130.6" fill="#000000" r="10" data-original="#3f0f33" class=""/>
            </g>
          </g>
        </g>
        <g>
          <g>
            <g>
              <circle cx="358" cy="120.6" fill="#000000" r="10" data-original="#3f0f33" class=""/>
            </g>
          </g>
        </g>
        <g>
          <g>
            <g>
              <path d="m344.3 94.9c-.5 0-1-.1-1.4-.3-.2-.1-21.5-10.8-42.7-11.9-1.7-.1-3.1-1.6-3-3.3s1.6-3 3.3-3c22.6 1.1 44.4 12.1 45.3 12.6 1.5.8 2.2 2.7 1.4 4.2-.6 1.1-1.7 1.7-2.9 1.7z" fill="#000000" data-original="#3f0f33" class=""/>
            </g>
          </g>
        </g>
      </g>
    </g>
  </g>
</svg>
