<?xml version="1.0" encoding="UTF-8"?>
<svg xmlns="http://www.w3.org/2000/svg" xmlns:xlink="http://www.w3.org/1999/xlink" xmlns:svgjs="http://svgjs.com/svgjs" version="1.1" width="512" height="512" x="0" y="0" viewBox="0 0 512 512" style="enable-background:new 0 0 512 512" xml:space="preserve" class="">
  <g>
    <g xmlns="http://www.w3.org/2000/svg">
      <g>
        <g>
          <g>
            <g>
              <path d="m371.5 429.7c-.3-4.1-1.8-8.2-4.2-12.5z" fill="#e0a368" data-original="#e0a368"/>
            </g>
          </g>
        </g>
        <g>
          <g>
            <g>
              <path d="m423.7 132.4c-32-22.7-64 3.9-64 3.9s43.7-5.4 46.3 34c2.2 33.7-43.9 40.6-57.1 41.9-3.1-4.6-6.6-9-10.3-13.3-20.8-23.8-100.7-24.5-115.6-29.4-1.1-.4-2.2-.8-3.1-1.3-5.8-3.9-8.8-9.7-10.4-16.3-2.6-20.2-15.8-42.7-15.8-42.7l-.2 1.5c-.8-7-3.3-19.1-7.9-28.7 16.3-32.3 0-60.2 0-60.2s-12.1 39.9-23.3 44.6c-7.4-.7-15.6-.5-21.9-.1-2 .1-3.9.6-5.8 1.3v-3.9s-17.4-46.4-26.5-43.6-15.8 60.5-9.1 88.1c0 0-13 39.9-5.8 58.4 1.5 3.7 3.6 8.2 6.2 13v2.9l-4-10.8s-10.4 72.5 7.4 120.8c17.7 48.3 15.6 159 15.6 159s-23.6 7.7-24.2 22.3h28c3.7 0 7.2-1.8 9.3-4.9 7.8-11.4 11.4-41.4 12.9-46.8 1.8-6.7 10.7-87.7 10.7-87.7 3 1 6.3 1.8 9.7 2.3 6.4 1 12.6 1.5 18.6 1.5 18.3 33 29.8 107.4 21.7 115.1-10 9.4-8.1 18.4-8.1 18.4h40s1.9-27.1-4.4-47.7c-5.9-19.6-5.7-69.3-7.8-91.8 2.2-.7 4.2-1.3 5.8-1.9 2.1-.4 4.7-1 7.8-1.8l2.3 1.4c-.9 7.7-2.5 33.7 14.6 45.2 20.2 13.5 33.7 35.7 30.6 54.6s-29.9 19.4-27.4 32.9h21.4c4.1 0 7.9-1.9 10.4-5.1 9.1-11.6 30.7-39.5 30.3-43.6-.5-5.2-22.8-29-22.8-43 0-9.6 3.1-18.7 5-23.5l2.2-2.5c19 29.5 51 52.2 62.5 72.4l4.2 12.5c-.8 8.2-3.5 15.9-10.2 19.3-9.2 4.6-12.9 10.4-14.3 14.9-1.1 3.7 1.5 7.4 5.4 7.5 9.6.2 27.6.5 28.7-.2 5-2.9 14.9-48.8 18.2-64.7.6-3.1-.3-6.3-2.5-8.6-14.3-14.8-26.5-49.4-31.1-59.5-5-10.9-1-24.8 2-56.5 1.6-17.2-1-33.2-7.1-48.1 85 5.9 93.2-80 62.9-101.5z" fill="#e0a368" data-original="#e0a368"/>
            </g>
          </g>
        </g>
      </g>
      <g>
        <g>
          <g>
            <path d="m240 326.5s-7.7 34.5 12.8 46.8 36.1 39 33.3 51.8-13.2 21.5-18 24.4-12.5 6.6-9.8 13.1h26.1s37.2-45.8 36-48.7-24.9-35.7-22.6-47.7c2.4-12 4.8-18.9 4.8-18.9l-10.3-40.5z" fill="#ad6845" data-original="#ad6845"/>
          </g>
        </g>
      </g>
      <g>
        <g>
          <g>
            <path d="m105.9 225s-5.2 60.8 16 83.3 39.4 28.9 60.9 26.6l-10-12.2s-34.2-22.1-42.4-53.2c0 0-2.8 18 0 24.4.1 0-17.8-26.3-24.5-68.9z" fill="#ad6845" data-original="#ad6845"/>
          </g>
        </g>
      </g>
      <g>
        <g>
          <g>
            <path d="m133.5 319s.9 122.6-5.9 135.9-14.8 18.9-14.8 18.9l13-.6s12.4-13.5 13.7-22.8 15.5-119.2 15.5-119.2z" fill="#ad6845" data-original="#ad6845"/>
          </g>
        </g>
      </g>
      <g>
        <g>
          <g>
            <path d="m356.2 225s77.6 4 82.7-65.1c0 0 9.2 40.5-23.4 62.6s-59.3 9-59.3 9z" fill="#ad6845" data-original="#ad6845"/>
          </g>
        </g>
      </g>
      <g>
        <g>
          <g>
            <path d="m371.5 423.5s2.1-23.7-12.9-38.7-56.8-44.5-56.8-44.5 50.7 61.4 69.7 83.2z" fill="#ad6845" data-original="#ad6845"/>
          </g>
        </g>
      </g>
      <g>
        <g>
          <g>
            <path d="m92.3 158.9s45.2 54.2 69.9 58.3c0 0 18.2-12 31.4-29.1 13.3-17.2 18.3-20.6 18.3-20.6s-22.7 60.2-47.7 77.4c.1 0-50.4-15.8-71.9-86z" fill="#ad6845" data-original="#ad6845"/>
          </g>
        </g>
      </g>
      <g>
        <g>
          <g>
            <path d="m185.5 137.5c.2-2.6-5-11.3-11-14.6-.7-2.8-1.2-5.4-1.6-7.6-3-16.6-19.1-25-23.3-17.9-4.2 7.2 1.2 29.2-9 36.9s-8 17.7-7.1 18.9 4.9 26.1 14.3 30.5 18.8 2.5 18.8 2.5c17.5-1.9 12.6-13 12.6-13s3.9 0 5.9-4c.8-1.7-.6-8.3-2.8-16.7 2.2-4.4 3-12 3.2-15z" fill="#423328" data-original="#624b68" class=""/>
          </g>
        </g>
      </g>
      <g>
        <g>
          <g>
            <path d="m136.3 65.8s-22.7-45.1-28.3-45.8-18.7 63.8-9.1 95.2c0 0 19.4-32.5 37.4-49.4z" fill="#423328" data-original="#624b68" class=""/>
          </g>
        </g>
      </g>
      <g>
        <g>
          <g>
            <path d="m162.2 66.2s22.8-34.1 22.8-43.1c0 0 8.3 12.3 6.7 27s-5.4 29.3-5.4 29.3-15-15.2-24.1-13.2z" fill="#423328" data-original="#624b68" class=""/>
          </g>
        </g>
      </g>
      <g>
        <g>
          <g>
            <path d="m371.5 211.2s48.9-7.7 47.5-36.8-36-38.3-36-38.3 29.5 16.5 22.3 39.8-33.8 35.3-33.8 35.3z" fill="#423328" data-original="#624b68" class=""/>
          </g>
        </g>
      </g>
      <g>
        <g>
          <g>
            <path d="m270.3 176.5c-10.2.2-23.4-2-33.7-4.2l-16.8-4.1-10-5s-20.1 29.4-9.9 25.6c5.3-2 13.9 10.4 12.1 15.8 0 .1 0 .1-.1.2-10.1 29.6 20.5 53.7 20.5 53.7l-5.2 29.6c4.6 17.4 66.3-12.1 77.1-33.4 10.7-21.3 44.5-42.6 44.5-42.6-16.8-28-58.9-36-78.5-35.6z" fill="#423328" data-original="#624b68" class=""/>
          </g>
        </g>
      </g>
      <g>
        <g>
          <g>
            <path d="m166.6 151.5s9.5 1.4 9.3 2.9-3.9 10.5-3.9 10.5 11.2-11.2 9.9-12.9-15.3-.5-15.3-.5z" fill="#ffffff" data-original="#ffffff"/>
          </g>
        </g>
      </g>
      <g>
        <g>
          <g>
            <path d="m224.3 306.8s12.7.3 34-7.7 35.5-10.9 35.5-10.9l-1.4 18.8-44.2 20.8-23.5 4.4z" fill="#ad6845" data-original="#ad6845"/>
          </g>
        </g>
      </g>
      <g>
        <g>
          <g>
            <path d="m136.3 230.7c-.5 0-1-.1-1.5-.4-13.5-7.1-37.4-44.1-44.6-62.6-7-18 3.6-53.6 5.5-59.7-5.8-25.7-1.5-87.1 11.4-91 10.4-3.2 23.5 27.1 30.3 45.5.6 1.6-.2 3.4-1.8 4s-3.4-.2-4-1.8c-8.2-21.9-18.9-41.3-22.7-41.7-5.6 3-13.8 55.3-6.8 84.4.1.6.1 1.2-.1 1.7-.1.4-12.6 39.1-5.9 56.3 7.4 19 30.7 53.6 41.7 59.4 1.5.8 2.1 2.7 1.3 4.2-.5 1.1-1.6 1.7-2.8 1.7z" fill="#000000" data-original="#3f0f33" class=""/>
          </g>
        </g>
      </g>
      <g>
        <g>
          <g>
            <circle cx="136.3" cy="115.7" fill="#000000" r="5.9" data-original="#3f0f33" class=""/>
          </g>
        </g>
      </g>
      <g>
        <g>
          <g>
            <circle cx="179.1" cy="114.7" fill="#000000" r="5.9" data-original="#3f0f33" class=""/>
          </g>
        </g>
      </g>
      <g>
        <g>
          <g>
            <path d="m171.4 169.7c-.4 0-.8-.1-1.2-.2-7.2-3-19-9.1-16.7-15.7 2.2-6.3 18.5-7.4 23.8-7.1 2.1.1 7.6.5 8.5 4.5 1 4.8-6.1 12.3-12.4 17.7-.5.5-1.2.8-2 .8zm-11.7-13.9c1.1 1.7 5.9 4.7 11.1 7.1 3.9-3.7 7.4-7.6 8.5-9.7-4.3-1.1-16.7.5-19.6 2.6z" fill="#000000" data-original="#3f0f33" class=""/>
          </g>
        </g>
      </g>
      <g>
        <g>
          <g>
            <path d="m182.8 158.7c-.2 0-.3 0-.5 0-1.7-.3-2.9-1.9-2.6-3.6.3-3.1-5-23.3-10.5-41.1-.4-1.4.1-2.8 1.4-3.6l8.5-5.3c1.5-.9 3.4-.4 4.3 1s.4 3.4-1 4.3l-6.5 4c3.3 10.9 10.8 36.5 10 41.6-.3 1.7-1.6 2.7-3.1 2.7z" fill="#000000" data-original="#3f0f33" class=""/>
          </g>
        </g>
      </g>
      <g>
        <g>
          <g>
            <path d="m191.2 141.8h-.1c-1.7-.1-3.1-1.5-3-3.2.2-5.7.9-10.8 1.5-15.3.5-3.6.9-6.7.9-9 0-8.8-6.7-38.9-18.2-42.9-6.3-2.2-17.6-2.9-31.8-2-5.4.3-10.3 3.2-13.1 7.7-3.3 5.2-5.9 10.1-7.5 14-.6 1.6-2.5 2.4-4.1 1.8s-2.4-2.5-1.8-4.1c1.7-4.4 4.4-9.4 8-15.1 4-6.2 10.7-10.2 18.1-10.6 10.6-.7 25.2-.8 34.2 2.3 16.6 5.7 22.4 41.6 22.4 48.9 0 2.8-.5 6.1-1 9.9-.6 4.3-1.3 9.2-1.5 14.6.1 1.6-1.3 3-3 3z" fill="#000000" data-original="#3f0f33" class=""/>
          </g>
        </g>
      </g>
      <g>
        <g>
          <g>
            <path d="m159.5 177.6c-4.2 0-8.7-.8-12-3.5-3.2-2.5-14.3-17.3-16.5-20.2-1-1.4-.8-3.4.6-4.4s3.4-.8 4.4.6c5.3 7 13.5 17.5 15.4 19 4.4 3.5 14 1.9 17.5.7v-3.3c0-1.7 1.4-3.1 3.1-3.1s3.1 1.4 3.1 3.1v5.1c0 .2 0 .4-.1.7-.4 1.9-2.2 2.7-4 3.4-2.1.8-6.7 1.9-11.5 1.9z" fill="#000000" data-original="#3f0f33" class=""/>
          </g>
        </g>
      </g>
      <g>
        <g>
          <g>
            <path d="m177.3 176.4c-2.7 0-5.2-.8-7.2-2.2-1.4-1-1.7-3-.6-4.4 1-1.4 3-1.7 4.4-.6 1.5 1.2 4.3 1.3 6.5.4.5-.2 1.8-.9 1.9-2 .3-3.2-1.4-9.8-2.6-13.3-.6-1.6.3-3.4 2-4 1.6-.5 3.4.3 4 2 .4 1 3.4 10.4 2.9 15.9-.3 3.1-2.4 5.6-5.7 7.1-1.8.7-3.7 1.1-5.6 1.1z" fill="#000000" data-original="#3f0f33" class=""/>
          </g>
        </g>
      </g>
      <g>
        <g>
          <g>
            <path d="m185.5 85.1c-.5 0-1-.1-1.4-.3-1.5-.8-2.2-2.7-1.4-4.2 10.5-20.9 6.7-40 3.2-50-4.4 12.7-13.2 34.7-22.5 38.6-1.6.7-3.4-.1-4.1-1.7s.1-3.4 1.7-4.1c7.1-3 17-27.7 21.5-42.6.4-1.2 1.4-2.1 2.6-2.2s2.4.5 3.1 1.5c.7 1.2 16.9 29.8.1 63.2-.6 1.1-1.7 1.8-2.8 1.8z" fill="#000000" data-original="#3f0f33" class=""/>
          </g>
        </g>
      </g>
      <g>
        <g>
          <g>
            <path d="m126.8 75.8c-1.4 0-2.7-1-3.1-2.4-4.2-18.3-10.9-34.9-14.2-35.7-1.7.3-3.3-.8-3.6-2.5s.9-3.3 2.6-3.7c10-1.9 17.7 24.5 21.4 40.4.4 1.7-.7 3.4-2.3 3.8-.4.1-.6.1-.8.1z" fill="#000000" data-original="#3f0f33" class=""/>
          </g>
        </g>
      </g>
      <g>
        <g>
          <g>
            <path d="m177.5 211.8c-.8 0-1.6-.3-2.2-.9-1.2-1.2-1.3-3.2-.1-4.4 4.1-4.2 7.9-8.3 11.2-12.1 15.9-18.2 19.7-28 20.1-33 1.7-20.7-15.5-50.3-15.6-50.6-.9-1.5-.4-3.4 1.1-4.3s3.4-.4 4.3 1.1c.8 1.3 18.4 31.6 16.5 54.3-.7 8.6-8 20.9-21.7 36.6-3.4 4-7.3 8.1-11.5 12.4-.5.6-1.3.9-2.1.9z" fill="#000000" data-original="#3f0f33" class=""/>
          </g>
        </g>
      </g>
      <g>
        <g>
          <g>
            <path d="m166.6 189.3c-1.5 0-2.9-1.1-3.1-2.7-.3-1.7.9-3.3 2.6-3.6 8.6-1.3 9.9-8.8 9.9-9.1.3-1.7 1.9-2.9 3.6-2.6s2.9 1.8 2.6 3.5c-.6 4.3-4.6 12.8-15.2 14.4-.1.1-.3.1-.4.1z" fill="#000000" data-original="#3f0f33" class=""/>
          </g>
        </g>
      </g>
      <g>
        <g>
          <g>
            <path d="m370.6 474.8c-4.3 0-10.2-.1-18.3-.3-2.8-.1-5.4-1.4-7-3.7-1.7-2.3-2.1-5.2-1.3-7.9 1.5-4.8 5.4-11.6 15.9-16.8 12.7-6.4 8.5-34 5.8-44.1-.4-1.7.5-3.4 2.2-3.8s3.4.5 3.8 2.2c.5 1.7 10.8 41.4-9.1 51.4-6.7 3.3-11.1 7.9-12.7 13-.3.8-.1 1.7.4 2.4.3.4.9 1.1 2.1 1.1 13.1.3 24.4.3 27.2.1 2.4-3.1 8.4-23.4 16.6-62.4.4-2.1-.2-4.3-1.7-5.8-12-12.4-22.2-37.4-28.3-52.3-1.4-3.3-2.5-6.2-3.4-8.1-4-8.8-2.8-18.5-.7-36.2.8-6.3 1.6-13.4 2.4-21.8 2.7-29-6.9-56.2-28.5-80.8-14.2-16.2-58.9-21.3-88.6-24.6-11.8-1.3-21.2-2.4-25.6-3.9-13.6-4.5-16.4-15.8-15.9-21.2.1-1.7 1.6-3 3.4-2.9 1.7.1 3 1.6 2.9 3.4 0 .4-.6 10.7 11.7 14.8 3.8 1.3 13.4 2.3 24.4 3.6 30.6 3.5 76.8 8.7 92.6 26.7 22.8 26 32.9 54.8 30 85.6-.8 8.5-1.7 15.7-2.4 22-2 16.6-3.1 25.7.2 32.9.9 2 2 4.8 3.5 8.3 5.9 14.5 15.8 38.8 27 50.3 2.9 3 4.2 7.3 3.3 11.4-13.1 62.8-17.9 65.7-19.7 66.7-.8.2-1.6.7-12.2.7z" fill="#000000" data-original="#3f0f33" class=""/>
          </g>
        </g>
      </g>
      <g>
        <g>
          <g>
            <path d="m371.5 432.8c-1.6 0-3-1.3-3.1-2.9-.8-12.1-14.4-25.8-30.1-41.6-14.5-14.5-30.9-31-41.1-50.3-21.9-41.2 8.2-92.5 9.5-94.7.9-1.5 2.8-2 4.3-1.1s2 2.8 1.1 4.3c-.3.5-29.5 50.5-9.3 88.5 9.8 18.5 25.9 34.6 40 48.8 16.6 16.7 31 31.1 31.9 45.6.1 1.7-1.2 3.2-2.9 3.3-.2.1-.2.1-.3.1z" fill="#000000" data-original="#3f0f33" class=""/>
          </g>
        </g>
      </g>
      <g>
        <g>
          <g>
            <path d="m236.8 474.8h-40c-1.5 0-2.8-1-3.1-2.5-.1-.4-2.1-10.9 9.1-21.3 2.1-2 3.3-19.2-3-51.5-7.7-39.2-20.2-68.7-31.1-73.2-1.6-.7-2.4-2.5-1.7-4.1s2.5-2.4 4.1-1.7c16.5 6.9 29.5 48.4 35.6 81.9 2 10.7 7.7 46.2.4 53.2-5.5 5.2-6.9 10.1-7.2 13h33.9c.3-7.5.4-27.8-4.4-43.7-4.1-13.7-5.3-40.6-6.3-64.3-.5-12.3-1-24-1.9-31.2-2.5-20.9 7.7-67.7 8.2-69.7.4-1.7 2.1-2.8 3.7-2.4 1.7.4 2.8 2 2.4 3.7-.1.5-10.5 47.7-8.1 67.6.9 7.4 1.4 18.7 1.9 31.7 1 22.2 2.1 49.8 6.1 62.8 6.3 20.9 4.6 47.7 4.5 48.9-.1 1.5-1.5 2.8-3.1 2.8z" fill="#000000" data-original="#3f0f33" class=""/>
          </g>
        </g>
      </g>
      <g>
        <g>
          <g>
            <path d="m224.3 334.3c-1.7 0-3-1.3-3.1-3s1.2-3.2 3-3.3c.2 0 15.4-1 34.5-11 29.1-15.2 33.1-13.7 34.9-13 1.6.6 2.4 2.4 1.8 4s-2.3 2.4-3.9 1.9c-.7-.1-5.9.1-29.9 12.7-20.4 10.7-36.4 11.6-37.1 11.7-.1 0-.1 0-.2 0z" fill="#000000" data-original="#3f0f33" class=""/>
          </g>
        </g>
      </g>
      <g>
        <g>
          <g>
            <path d="m279.7 465.8h-21.4c-1.5 0-2.8-1.1-3.1-2.6-1.6-8.6 5.5-13 12.4-17.3 6.7-4.1 13.6-8.4 15-16.7 2.8-17-9.2-38.2-29.2-51.5-21.7-14.4-15.9-49-15.7-50.5.3-1.7 1.9-2.9 3.6-2.6s2.9 1.9 2.6 3.6c-.1.3-5.3 32 13 44.2 22 14.6 35.1 38.4 31.9 57.8-1.8 11.2-10.7 16.7-17.9 21.1-5.1 3.2-8.5 5.4-9.4 8.2h18.2c3.1 0 6-1.4 8-3.9 20.6-26.2 28.7-38.6 29.6-41.6-.5-1.5-3.7-6.1-6.4-9.9-7.3-10.4-16.4-23.3-16.4-33.3 0-14.6 6.6-27.9 6.9-28.4.8-1.5 2.7-2.2 4.2-1.4s2.2 2.7 1.4 4.2c-.1.1-6.2 12.6-6.2 25.6 0 8 9.2 21 15.2 29.7 4.9 7 7.3 10.5 7.5 13 .2 1.9.6 5.8-30.9 45.9-3.1 4.1-7.8 6.4-12.9 6.4z" fill="#000000" data-original="#3f0f33" class=""/>
          </g>
        </g>
      </g>
      <g>
        <g>
          <g>
            <path d="m176.3 340.7c-53.7 0-66.5-51.3-66.6-51.9-.4-1.7.6-3.4 2.3-3.8s3.4.6 3.8 2.3c.5 2.1 12.8 50.9 66.8 46.8 1.7-.1 3.2 1.2 3.4 2.9.1 1.7-1.2 3.2-2.9 3.4-2.4.2-4.6.3-6.8.3z" fill="#000000" data-original="#3f0f33" class=""/>
          </g>
        </g>
      </g>
      <g>
        <g>
          <g>
            <path d="m122.1 476.9h-28c-.9 0-1.7-.3-2.3-1-.6-.6-.9-1.4-.9-2.3.6-14 18-22 24.2-24.4.2-15.6.6-112.2-15.4-155.7-17.8-48.5-7.9-119.4-7.5-122.4.2-1.7 1.8-2.9 3.6-2.7 1.7.2 2.9 1.8 2.7 3.6-.1.7-10.1 72.3 7.2 119.3 17.7 48.3 15.9 155.6 15.8 160.2 0 1.3-.9 2.5-2.2 2.9-5.3 1.7-18.3 7.7-21.3 16.2h24.2c2.7 0 5.2-1.3 6.7-3.5 5.7-8.3 9.2-28 11-38.5.6-3.4 1-5.9 1.4-7.3 1.3-4.8 7-54.8 10.6-87.2.2-1.7 1.7-3 3.5-2.8 1.7.2 3 1.7 2.8 3.5-.9 8.3-8.9 81.4-10.8 88.2-.3 1.1-.8 3.7-1.3 6.7-2.1 11.8-5.6 31.6-12 41-2.8 3.9-7.3 6.2-12 6.2z" fill="#000000" data-original="#3f0f33" class=""/>
          </g>
        </g>
      </g>
      <g>
        <g>
          <g>
            <path d="m373.9 236.7c-4.4 0-9-.3-13.9-.8-1.7-.2-3-1.7-2.8-3.5.2-1.7 1.7-3 3.5-2.8 36.7 4 63.4-8.8 73.5-35.2 8.2-21.7 2.6-49-12.2-59.5-20.3-14.4-40.5-7.8-51.6-1.8 7.6.6 17.9 2.9 26 9.6 7.7 6.4 12 15.6 12.8 27.4.6 10-2.3 18.6-8.6 25.7-16 17.7-48.2 19.1-49.6 19.2-1.7.1-3.2-1.3-3.3-3s1.3-3.2 3-3.3c.3 0 31-1.4 45.2-17.1 5.2-5.7 7.5-12.8 7-21.1-.6-10-4.2-17.7-10.5-22.9-12.5-10.4-32.1-8.2-32.3-8.2-1.4.2-2.7-.6-3.3-1.9-.5-1.3-.2-2.8.9-3.7.3-.3 34.3-27.9 67.8-4 17.3 12.3 23.8 42.3 14.5 66.9-4.8 12.6-20.5 39.9-66.1 40z" fill="#000000" data-original="#3f0f33" class=""/>
          </g>
        </g>
      </g>
      <g>
        <g>
          <g>
            <path d="m144.1 115c-.2 0-.3 0-.5 0l-13.6-2c-1.7-.3-2.9-1.8-2.7-3.6.3-1.7 1.8-2.9 3.6-2.7l13.6 2c1.7.3 2.9 1.8 2.7 3.6-.2 1.6-1.6 2.7-3.1 2.7z" fill="#000000" data-original="#3f0f33" class=""/>
          </g>
        </g>
      </g>
    </g>
  </g>
</svg>
