<?xml version="1.0" encoding="UTF-8"?>
<svg xmlns="http://www.w3.org/2000/svg" xmlns:xlink="http://www.w3.org/1999/xlink" xmlns:svgjs="http://svgjs.com/svgjs" version="1.1" width="512" height="512" x="0" y="0" viewBox="0 0 512 512" style="enable-background:new 0 0 512 512" xml:space="preserve" class="">
  <g>
    <g xmlns="http://www.w3.org/2000/svg">
      <g>
        <g>
          <g>
            <g>
              <path d="m402.2 381.9c5.7-15.1 9.4-41.5-37.4-85.3-30.4-28.4-55.5-41.1-69.9-49 0 0-10.9-6.9-11.8-10.2-.4-1.4-2.8-4.7-5.5-8.3-.2-.3-.4-.6-.6-.8l.1.1c-.2-.2-.4-.5-.6-.7.2.2.3.4.5.6l-14.3-27.1c-1.3-3.5-2.4-6.1-2.4-6.1l-.8-.1c1.4-5.4 1.5-9.9 1.2-12.4-.8-8.9-.1-12.2 4.8-22.5.8-1.6.8-3.7.3-6.2l1.8 2c22.2-16.6 29-79.6 18.8-93.1s-31.3 1-39.2 17.4c-7.8 16.4-13.7 26.2-13.7 26.2s-9-4.7-17-5c0 0-.5-.1-1.5-.3-7.5-2.1-16.6-1-16.6-1s-2.1-11.2-3.6-29.3c-1.6-18.1-16.3-39.1-30.6-30-14.2 9.1-30 70.5-15 93.8l2.4-1.2c-1.3 2.1-2.1 4.1-1.9 5.9 1 11.4.5 14.8-3.4 22.8-2.8 5.7-7.8 25.2 6.2 44.4-.4 1.5-.7 3.3-.8 5.2-.8 3.4-1.5 9.2 1.8 13v.1c0 .4.1.7.1 1.1-1 6.8-22.1 36-16.9 58.6 5.7 24.4 10.2 26.3 9.8 34-.3 7.6 2.6 26.1 8.6 39.9 6 13.9 5.4 24.7 8.7 33.1s-3.8 23.1-10.3 25-18.2 5.4-19.6 17.1h38.6s18.5-28 19-41-1.4-25.8-1.4-25.8l-.1-.3c10 7.8 23.2 15 40.6 20.4.6.3 1.4.7 2.2 1-.1 3.1-.2 6.2 0 9.4 1.1 20.4-26.5 33.8-27.9 45.6-1.4 11.9 41.2 5.6 46.8 0 2.8-2.8 9.5-23 14.8-47.3 1.3.2 2 .3 2 .3 3.2 1.8 10.7 5.6 22.7 9.3l-.5.5c-9.1 1.3-15.3 4.2-19.6 7.5-5.2 3.9-2.2 12.2 4.3 12.2h47.2c-2.3 3.6-3.1 7.6-3.3 10.8-.2 3.5 2.6 6.3 6.1 6.3 16.3-.2 62-1.5 75-8.6 16.1-8.9-3.9-36.9 1.8-52z" fill="#d3ae92" data-original="#d3ae92"/>
            </g>
          </g>
        </g>
      </g>
      <g>
        <g>
          <g>
            <path d="m324.8 375.3c-1.6-11.2.5-25.6 13.6-40.4 0 0-12 9.6-21.7 20.6-7.5 8.6-20.8 9.6-28.9 1.5-11.1-11-11.3-22-11.3-22l-7.7 60.7 22.2 9.8c-34.6 5.5-20.5 19.7-20.5 19.7h52.3l5.8-9.8 19.1-1.3c-8.6-2.9-22.9-38.8-22.9-38.8z" fill="#a07e67" data-original="#a07e67"/>
          </g>
        </g>
      </g>
      <g>
        <g>
          <g>
            <path d="m153.6 224.5s18.7 27.5 47.7 25.1c29.1-2.3 43.8-26.5 43.8-26.5l-4.2 16s22.3-14 22-25.9-7.1-9-7.1-9-34.3 31.6-61.1 24.4-40.2-19.6-40.2-19.6-8.7 6.5-.9 15.5z" fill="#a07e67" data-original="#a07e67"/>
          </g>
        </g>
      </g>
      <g>
        <g>
          <g>
            <path d="m170.8 223s.6 19.8-2.6 30.8-17.6 29.9-8 67.2 53.8 66.2 70.8 65.5l4-32.4s-12.8-16.7-14.4-23.1 5.6-9.6-4-27.3c-11.9-22.1 9.5-41 23.2-77.7-.1.1-47 19.9-69-3z" fill="#fff0e6" data-original="#fff0e6"/>
          </g>
        </g>
      </g>
      <g>
        <g>
          <g>
            <path d="m224 164.1c-6.8-6.1-16.1-8.6-25.1-7.7-9.9 1-22.2-.2-29.6 10.9-7.3 11-27.5 3.7-22.5 28.6s29 36.4 54.6 37.3 53.9-23.1 53.9-33.9c0-12.2-12-12.2-16.7-17-3.2-3.1-7.5-11.9-14.6-18.2z" fill="#7a5c64" data-original="#7a5c64"/>
          </g>
        </g>
      </g>
      <g>
        <g>
          <g>
            <path d="m165 335s-2.2 26.3 7 45.1c9.1 18.8.4 35.5-8.9 39.5-9.4 4-19.8 13.8-19.8 13.8h29.6s18.9-35.2 19-41 .8-24.4.8-24.4-18-15.4-27.7-33z" fill="#a07e67" data-original="#a07e67"/>
          </g>
        </g>
      </g>
      <g>
        <g>
          <g>
            <path d="m322.8 433.3s63-.7 73.4-8.2c10.4-7.4 7.5-21.1 7.5-21.1s10.3 24.8-6.6 31.1-76.5 8.9-76.5 8.9z" fill="#a07e67" data-original="#a07e67"/>
          </g>
        </g>
      </g>
      <g>
        <g>
          <g>
            <path d="m205.2 436.9s29.1 3.3 39.4-3.5c10.4-6.8 30.1-84.8 30.1-84.8s-10.5 89.4-22.7 94-44.9 6.5-46.8 4.6c-1.9-1.8 0-10.3 0-10.3z" fill="#a07e67" data-original="#a07e67"/>
          </g>
        </g>
      </g>
      <g>
        <g>
          <g>
            <path d="m235 354.2s-47.8 1-76.4-43.7c0 0 2.8 62.2 72.4 76.1z" fill="#d8c4b8" data-original="#d8c4b8"/>
          </g>
        </g>
      </g>
      <g>
        <g>
          <g>
            <path d="m175.4 227c-1.8-.6-3.4-1-4.6-1.4 0 3 0 8.4-.5 14.1l-.1 1s19.9 17.5 45.8 5.6c11-5.1 17.8-11 22-16.1.5-1.3 1.1-2.7 1.6-4.1.1 0-40.8 17.3-64.2.9z" fill="#d8c4b8" data-original="#d8c4b8"/>
          </g>
        </g>
      </g>
      <g>
        <g>
          <g>
            <path d="m249.4 123.5s-.3-39.8 27.1-52.8c0 0 6.7 18.6 0 44.5s-13.5 30.5-13.5 30.5z" fill="#af736d" data-original="#af736d"/>
          </g>
        </g>
      </g>
      <g>
        <g>
          <g>
            <path d="m178 110.3s14.4-37.1-6.5-59c0 0-12.9 15.1-15.8 41.6s1.8 33.3 1.8 33.3z" fill="#af736d" data-original="#af736d"/>
          </g>
        </g>
      </g>
      <g>
        <g>
          <g>
            <path d="m199.8 194.7-14.3 11.1s6.9 8.9 19.1 7.9 11.9-1.8 11.9-1.8z" fill="#f583a2" data-original="#af2243" class=""/>
          </g>
        </g>
      </g>
      <g>
        <g>
          <g>
            <path d="m189.4 58.1s2.6 45.3 4.5 46.4c1.9 1.2 15-2.2 15-2.2l-10.5-2.4z" fill="#ffffff" data-original="#ffffff" class=""/>
          </g>
        </g>
      </g>
      <g>
        <g>
          <g>
            <path d="m301.7 254.6s113.6 72 96.6 132c0 0 9.7-10.8 2.6-43-7.2-32.2-99.2-89-99.2-89z" fill="#ffffff" data-original="#ffffff" class=""/>
          </g>
        </g>
      </g>
      <g>
        <g>
          <g>
            <path d="m338.4 335s-30 50.9 28.7 84.4c0 0-68.8-13.9-28.7-84.4z" fill="#ffffff" data-original="#ffffff" class=""/>
          </g>
        </g>
      </g>
      <g>
        <g>
          <g>
            <path d="m168.2 121.6s-11.1 13.1-11.7 17 .8 15.5-4.4 22.2-7.5 17.3-7.1 17.6 4.3-17 6.5-26.2c2.2-9.1-3.1-15.6.1-19.1 3.3-3.4 16.6-11.5 16.6-11.5z" fill="#ffffff" data-original="#ffffff" class=""/>
          </g>
        </g>
      </g>
      <g>
        <g>
          <g>
            <ellipse cx="243.8" cy="162.1" fill="#a07e67" rx="3.9" ry="8.4" transform="matrix(.176 -.984 .984 .176 41.222 373.508)" data-original="#a07e67"/>
          </g>
        </g>
      </g>
      <g>
        <g>
          <g>
            <ellipse cx="170.3" cy="149.4" fill="#a07e67" rx="3.9" ry="8.4" transform="matrix(.176 -.984 .984 .176 -6.771 290.659)" data-original="#a07e67"/>
          </g>
        </g>
      </g>
      <g>
        <g>
          <g>
            <g>
              <path d="m149.2 137.6c-1 0-2-.5-2.6-1.4-7.4-11.5-8.7-33-3.3-57.5 3.3-15.2 10.4-35 19.3-40.6 5.1-3.3 10.7-3.6 16.2-.8 9.7 4.8 18 19.1 19.2 33.3 1.1 12.6 2.4 21.8 3.1 26.2 3.8-.2 10.4-.2 16.1 1.7 1.6.5 2.5 2.3 2 4-.5 1.6-2.3 2.5-4 2-6.9-2.3-16.2-1.2-16.3-1.2-1.6.2-3.2-.9-3.5-2.5-.1-.5-2.1-11.5-3.7-29.6-1-11.8-8.1-24.4-15.7-28.2-3.5-1.7-6.8-1.6-10.1.5-5.7 3.6-12.6 19.1-16.5 36.7-4.9 22.5-4 42.7 2.4 52.7.9 1.5.5 3.4-.9 4.3-.5.2-1.1.4-1.7.4z" fill="#000000" data-original="#3f0f33" class=""/>
            </g>
          </g>
        </g>
        <g>
          <g>
            <g>
              <path d="m202 236.3c-11 0-22.9-5-23.5-5.2-45.5-23.3-40.7-58.8-35-70.6 3.7-7.5 4.1-10.3 3.1-21.1-1.2-12.7 30.6-32.5 37-36.4 1.5-.9 3.4-.4 4.3 1.1s.4 3.4-1.1 4.3c-16.8 10.1-34.5 24.6-34 30.4 1.1 11.9.5 15.8-3.7 24.4-.2.4-16.4 37.4 32 62.2s14.2 5.9 24.4 4.4c53.9-8.1 52.3-43 51.9-47-.9-9.5-.1-13.4 5.1-24.2 2.5-5.3-9-25.1-21.2-40.4-1.1-1.4-.8-3.3.5-4.4 1.4-1.1 3.3-.8 4.4.5 4.6 5.8 27.4 35.6 21.9 47.1-4.7 9.8-5.3 12.5-4.5 20.9 1.5 16.6-8.8 46.5-57.2 53.8-1.3.1-2.8.2-4.4.2z" fill="#000000" data-original="#3f0f33" class=""/>
            </g>
          </g>
        </g>
        <g>
          <g>
            <g>
              <path d="m177.7 113.7c-.3 0-.6 0-.9-.1-1.7-.5-2.6-2.3-2.1-3.9 13-41.8-4.9-54.9-5.6-55.4-1.4-1-1.8-2.9-.8-4.4 1-1.4 2.9-1.8 4.3-.8.9.6 22.6 15.9 8.1 62.5-.5 1.2-1.7 2.1-3 2.1z" fill="#000000" data-original="#3f0f33" class=""/>
            </g>
          </g>
        </g>
        <g>
          <g>
            <g>
              <path d="m267.6 158.9c-1 0-1.9-.4-2.5-1.3-1-1.4-.7-3.4.6-4.4 9.5-7.1 17.5-25.7 20.8-48.5 2.6-17.9 1.5-34.8-2.6-40.1-2.3-3.1-5.3-4.4-9.2-4-8.5.9-19.5 10.2-24.6 20.9-7.8 16.4-13.6 26-13.8 26.4-.9 1.4-2.7 1.9-4.1 1.2-.1 0-8.5-4.4-15.7-4.6-1.7-.1-3.1-1.5-3-3.3.1-1.7 1.5-3.1 3.3-3 5.9.2 12.2 2.5 15.7 4 2.2-3.8 6.7-12 12.1-23.4 6.1-12.8 18.8-23.3 29.6-24.4 6.1-.6 11.2 1.6 14.9 6.5 6.3 8.4 6 29.4 3.8 44.8-3.6 24.8-12.2 44.5-23.2 52.7-.8.3-1.4.5-2.1.5z" fill="#000000" data-original="#3f0f33" class=""/>
            </g>
          </g>
        </g>
        <g>
          <g>
            <g>
              <path d="m249.4 126.6c-.1 0-.1 0-.2 0-1.7-.1-3.1-1.6-3-3.3 2.7-48.7 28.4-55.4 29.5-55.6 1.7-.4 3.4.6 3.8 2.3s-.6 3.4-2.3 3.8c-1 .3-22.2 6.3-24.7 49.9-.1 1.6-1.5 2.9-3.1 2.9z" fill="#000000" data-original="#3f0f33" class=""/>
            </g>
          </g>
        </g>
        <g>
          <g>
            <g>
              <path d="m172.7 436.5h-38.6c-.9 0-1.7-.4-2.3-1.1s-.9-1.6-.8-2.4c1.6-13.9 15.2-17.9 21.8-19.8 1.6-.5 4.2-2.9 6.3-7.2 2.5-5 3.2-10.4 2-13.7-1.5-3.8-2.2-7.9-3-12.4-1.1-6-2.3-12.9-5.7-20.7-6.3-14.5-9.2-33.6-8.9-41.3.1-2.9-.6-4.8-2.2-8.7-1.8-4.5-4.5-11.3-7.6-24.4-4.1-17.5 6.4-38.3 12.7-50.7 1.7-3.3 3.5-6.9 4-8.6-5-6.9-1.2-17.4-1-17.9.6-1.6 2.4-2.4 4-1.8s2.4 2.4 1.8 4c-.9 2.3-2.4 9.1.5 12.4 2.3 2.6.5 6.2-3.8 14.7-5.9 11.6-15.8 31.1-12.2 46.4 2.9 12.6 5.6 19.1 7.3 23.5 1.7 4.2 2.8 7 2.6 11.3-.3 7.2 2.7 25.4 8.4 38.5 3.6 8.4 4.9 15.7 6.1 22.1.8 4.3 1.4 8 2.7 11.2 1.9 5 1.1 12-2.2 18.7-2.7 5.5-6.4 9.3-10.2 10.4-6.7 2-13.9 4.6-16.4 11h33c5.5-8.6 17.2-28.6 17.6-38 .5-12.6-1.3-25.1-1.3-25.2-.3-1.7.9-3.3 2.6-3.6s3.3.9 3.6 2.6c.1.5 1.9 13.2 1.4 26.4-.6 13.8-18.8 41.4-19.5 42.6-.6 1.2-1.6 1.7-2.7 1.7z" fill="#000000" data-original="#3f0f33" class=""/>
            </g>
          </g>
        </g>
        <g>
          <g>
            <g>
              <path d="m230.9 389.7c-.3 0-.6 0-.9-.1-73.7-22.7-74.6-78.5-74.6-79.1 0-1.7 1.4-3.1 3.1-3.1s3.1 1.4 3.1 3.1c0 2.2 1.1 51.9 70.1 73.1 1.7.5 2.6 2.3 2.1 3.9-.3 1.3-1.5 2.2-2.9 2.2z" fill="#000000" data-original="#3f0f33" class=""/>
            </g>
          </g>
        </g>
        <g>
          <g>
            <g>
              <path d="m220.9 452.5c-5.5 0-10.5-.7-13.8-2.3-4.8-2.3-5.1-6-4.9-8 .7-5.9 6-11.3 12-17.6 7.7-7.9 16.4-16.9 15.8-27.5-.5-8.9.4-17.5 1.3-25.2.9-8.4 1.8-17.1-.4-19.4-5.8-6.1-11.5-17.5-11.7-18-.8-1.6-.1-3.4 1.4-4.2 1.6-.8 3.4-.1 4.2 1.4.1.1 5.4 11 10.6 16.4 4.2 4.4 3.3 12.8 2.1 24.4-.8 7.4-1.7 15.9-1.2 24.2.7 13.4-9.4 23.9-17.6 32.3-5.1 5.2-9.8 10.1-10.3 13.9 0 .3-.1.9 1.4 1.6 9 4.4 36.6-.8 40-4.2 4.3-4.7 25.1-76 20.6-114.7-.2-1.7 1-3.3 2.8-3.5 1.7-.2 3.3 1 3.5 2.8 4.4 37.8-15.1 112.6-22.5 119.8-3.9 4-20.2 7.8-33.3 7.8z" fill="#000000" data-original="#3f0f33" class=""/>
            </g>
          </g>
        </g>
        <g>
          <g>
            <g>
              <path d="m275.1 348.9c-.8 0-1.5-.3-2.1-.8-1.3-1.2-1.4-3.2-.2-4.4 11.4-12.5 14.5-29.1 14.6-29.3.3-1.7 1.9-2.8 3.7-2.5 1.7.3 2.8 1.9 2.5 3.7-.1.7-3.5 18.5-16.1 32.3-.7.7-1.5 1-2.4 1z" fill="#000000" data-original="#3f0f33" class=""/>
            </g>
          </g>
        </g>
        <g>
          <g>
            <g>
              <path d="m325.6 445.4c-2.5 0-4.9-1-6.6-2.8s-2.6-4.3-2.5-6.8c.6-10.8 6.4-18.5 16.3-21.4 18.3-5.5 46.4 1.6 47.6 1.9 1.7.4 2.7 2.1 2.3 3.8s-2.1 2.7-3.8 2.3c-.3-.1-27.7-7-44.3-2-7.3 2.2-11.3 7.5-11.8 15.8 0 .8.2 1.5.8 2.1s1.3.9 2.2.9c14.1-.2 61.1-1.4 73.6-8.2 6.6-3.6 5.1-11.8 1.9-24.8-2.2-8.9-4.5-18-1.8-25.3 5.7-15.2 8.1-40.1-36.6-81.9-28-26.2-51.8-39.1-66.1-46.8-10.9-5.9-16.8-9.1-17.9-14.1-.9-4.3-5.6-9.6-9.3-13.9-3.7-4.2-6.4-7.3-6.7-10.2-.4-3.4-3.9-12.7-5.3-16.1-.6-1.6.1-3.4 1.7-4.1 1.6-.6 3.4.1 4.1 1.7.5 1.3 5.1 12.9 5.7 17.7.2 1.1 3.1 4.4 5.2 6.8 4.5 5.1 9.5 10.8 10.7 16.8.4 2.1 7.4 5.9 14.7 9.9 14.5 7.9 38.9 21 67.4 47.7 47.4 44.3 44.5 71.9 38.2 88.7-2 5.4 0 13.6 2 21.6 3 12 6.4 25.6-4.9 31.8-13.4 7.3-57.9 8.7-76.5 9-.2-.1-.3-.1-.3-.1z" fill="#000000" data-original="#3f0f33" class=""/>
            </g>
          </g>
        </g>
        <g>
          <g>
            <g>
              <path d="m352.8 418.7c-.6 0-1.2-.2-1.7-.5-18.9-11.9-29.1-26.1-30.2-42.1-2-28.6 25.4-52.2 26.6-53.1 1.3-1.1 3.3-1 4.4.4 1.1 1.3 1 3.3-.4 4.4-.3.2-26.2 22.6-24.4 47.9 1 13.9 10.2 26.4 27.3 37.2 1.5.9 1.9 2.9 1 4.3-.5 1-1.5 1.5-2.6 1.5z" fill="#000000" data-original="#3f0f33" class=""/>
            </g>
          </g>
        </g>
        <g>
          <g>
            <g>
              <path d="m347.7 416.7c-55.1-1.6-81.4-18.8-82.5-19.6-1.4-1-1.8-2.9-.9-4.4 1-1.4 2.9-1.8 4.4-.9.4.2 26.2 16.9 79.1 18.5 1.7.1 3.1 1.5 3 3.2 0 1.9-1.4 3.2-3.1 3.2z" fill="#000000" data-original="#3f0f33" class=""/>
            </g>
          </g>
        </g>
        <g>
          <g>
            <g>
              <path d="m323 428.3h-47.3c-4.4 0-8.1-2.7-9.5-6.8s-.1-8.4 3.3-11c5.5-4.2 12.6-6.9 21-8.1 1.7-.2 3.3 1 3.5 2.7s-1 3.3-2.7 3.5c-7.4 1-13.5 3.3-18.1 6.9-1.9 1.4-1.4 3.5-1.2 4 .4 1.2 1.6 2.6 3.6 2.6h47.4c1.7 0 3.1 1.4 3.1 3.1s-1.4 3.1-3.1 3.1z" fill="#000000" data-original="#3f0f33" class=""/>
            </g>
          </g>
        </g>
        <g>
          <g>
            <g>
              <path d="m216.6 179.5c-1 0-1.9-.2-2.8-.5-3.3-1.2-5.4-4.4-5.8-8.9-.1-1.7 1.1-3.2 2.9-3.4 1.7-.2 3.2 1.1 3.4 2.9.2 1.9.8 3.2 1.7 3.5s2.6-.1 4.2-1.7c.8-.8.7-1.2.7-1.3-.3-1.7-4.1-4.7-10.7-7.4-.5-.2-1-.4-1.5-.5-1.8-.5-3.6-.7-5.4-.8-6.9-.2-9.8 1.1-10.5 1.9-.1.1-.3.4 0 1.5.7 2.2 2 3.3 3 3.5 1 .1 2.1-.7 3.1-2.4.9-1.5 2.8-1.9 4.3-1s1.9 2.8 1 4.3c-2.3 3.8-5.7 5.7-9.2 5.3-3.6-.4-6.8-3.4-8.2-7.7-1.1-3.4-.1-5.8.9-7.2 2.4-3.2 7.7-4.7 15.7-4.4 2.3.1 4.5.4 6.8 1 .8.2 1.6.5 2.3.8 6 2.4 13.4 6.5 14.5 12 .4 1.8.2 4.4-2.4 7-2.4 2.2-5.3 3.5-8 3.5z" fill="#000000" data-original="#3f0f33" class=""/>
            </g>
          </g>
        </g>
        <g>
          <g>
            <g>
              <path d="m176 208.9c-2.3 0-4.5-.5-6.5-1.7-6-3.7-8.1-8.4-9.6-11.8-1.5-3.3-1.9-4-3.6-4.1s-3-1.6-2.9-3.3 1.6-3 3.3-2.9c5.7.4 7.5 4.5 9 7.8 1.4 3.1 2.8 6.3 7.2 9 6.7 4.1 21.6-8 26.3-12.6 1.2-1.2 3.2-1.2 4.4 0s1.2 3.2 0 4.4c-1.9 1.8-16 15.2-27.6 15.2z" fill="#000000" data-original="#3f0f33" class=""/>
            </g>
          </g>
        </g>
        <g>
          <g>
            <g>
              <path d="m224.2 216.2c-12.7 0-24.3-20.8-25.7-23.3-.4-.6-.5-1.4-.3-2.1l3-14.4c.3-1.7 2-2.8 3.7-2.4 1.7.3 2.8 2 2.4 3.7l-2.7 13.2c3.7 6.4 13.6 20.7 20.9 18.9 5-1.3 7.3-3.8 9.5-6.2 2.4-2.6 5.3-5.8 10.9-4.5 1.7.4 2.7 2.1 2.3 3.8s-2.1 2.7-3.8 2.3c-1.8-.4-2.4 0-4.8 2.6-2.4 2.7-5.8 6.3-12.6 8.1-.9.2-1.8.3-2.8.3z" fill="#000000" data-original="#3f0f33" class=""/>
            </g>
          </g>
        </g>
        <g>
          <g>
            <g>
              <path d="m204.2 216.8c-1.9 0-3.9-.2-6-.6-12.5-2.4-17.5-10.1-17.7-10.4-.9-1.5-.5-3.4 1-4.3s3.4-.5 4.3 1c.2.3 3.9 5.8 13.6 7.6 9.6 1.8 15-2.2 15.2-2.3 1.4-1 3.3-.8 4.4.6s.8 3.3-.5 4.4c-.3 0-5.4 4-14.3 4z" fill="#000000" data-original="#3f0f33" class=""/>
            </g>
          </g>
        </g>
        <g>
          <g>
            <g>
              <circle cx="174.6" cy="143.9" fill="#000000" r="6.4" data-original="#3f0f33" class=""/>
            </g>
          </g>
        </g>
        <g>
          <g>
            <g>
              <circle cx="240.9" cy="155.8" fill="#000000" r="6.4" data-original="#3f0f33" class=""/>
            </g>
          </g>
        </g>
        <g>
          <g>
            <g>
              <path d="m216.2 249.1c-1.2 0-2.3-.7-2.9-1.9-.7-1.6 0-3.4 1.6-4.1.3-.1 16.5-7.7 27.1-26 .9-1.5 2.8-2 4.3-1.1s2 2.8 1.1 4.3c-11.7 20.1-29.2 28.2-29.9 28.5-.5.2-.9.3-1.3.3z" fill="#000000" data-original="#3f0f33" class=""/>
            </g>
          </g>
        </g>
      </g>
    </g>
  </g>
</svg>
